<svg class="moonscape" width="100%" height="100%" viewBox="0 0 1920 1080" version="1.1" xmlns="http://www.w3.org/2000/svg" xmlns:xlink="http://www.w3.org/1999/xlink" xml:space="preserve" xmlns:serif="http://www.serif.com/" style="fill-rule:evenodd;clip-rule:evenodd;stroke-linejoin:round;stroke-miterlimit:2;">
	<defs>
		<style>
			.mountain {
				fill: var(--theme_mountain, rgb(26,32,36));
			}
			.mountain-snow {
				fill: var(--theme_mountainSnow, rgb(172,172,172));
			}
			.mountain-shadow {
				fill: var(--theme_mountainShadow, rgb(18,18,18));
			}
			.moon-shadow {
				fill: var(--theme_moonShadow, #1A2024);
			}
			.moon-base {
				fill: var(--theme_moonBase, #E2E2E0);
			}
			.moon-mid {
				fill: var(--theme_moonMid, #C9C9C9);
			}
			.moon-peak {
				fill: var(--theme_moonPeak, #FFFFFF);
			}
			.moon-wash {
				fill: var(--theme_moonWash, #ffe72e);
			}
		</style>
	</defs>
	<clipPath id="moonClipping">
		<circle cx="481.4" cy="120.9" r="68.3" />
	</clipPath>
	<mask id="gibbous">
		<circle fill="white" cx="481.4" cy="120.9" r="68.3" />
		<circle fill="black" cx="481.4" cy="120.9" r="68.3" transform="translate(16 16)" />
	</mask>
	<g transform="matrix(1,0,0,1,493.604,277.095)">
		<g id="THE_MOON" transform="matrix(1.60512, 0, 0, 1.60512, -58.610634, -336.374817)">
			<circle class="moon-base" cx="481.4" cy="120.9" r="68.3"/>
			<g>
				<path class="moon-mid" d="M466.9,67.4c-3.9-2.8-9-2.7-12.2-1c-1.7,0.9-1.8,1.6-5.1,3.6c-2.7,1.6-3.6,1.7-5.3,2.8 c-2.6,1.7-4,3.6-5.6,5.8c-3.1,4.4-7.9,11.1-5.8,18.3c0.6,2.1,1,3.6,2.3,4.1c4.4,1.4,10.4-14,21.3-14.8c1.2-0.1,1.5,0.1,3.1-0.1 c1.5-0.2,10.4-1.3,12.2-7.4C473,74.4,470.2,69.8,466.9,67.4z"/>
				<path class="moon-mid" d="M508.5,72.5c-3.9-2-4.4-2.4-5.8-2.8c-1.1-0.3-1.8-0.5-2.8-0.5c-3.8,0-8.4,3.5-8.4,7.4c0,2.1,1.4,3.8,1.8,4.3 c0.7,0.9,1.2,1.1,3.8,3c3,2.2,2.6,2.1,3.3,2.5c0.9,0.5,3.8,2.1,7.1,1c0.7-0.2,2.9-1.1,4.1-3.3c0.6-1.2,0.6-2.6,0.5-5.3 c-0.1-3.6-0.7-4.5-1-4.8C510.7,73.6,510.5,73.5,508.5,72.5z"/>
				<path class="moon-mid" d="M528.6,82.9c-3-0.6-4.5-0.9-5.6-0.3c-1.1,0.6-0.7,1.3-2.5,3.6c-1.5,1.9-1.9,1.7-2.5,2.8 c-1.3,2.2-0.7,5.2,0.3,7.1c1.5,3,4.3,4,5.1,4.3c1.1,0.4,1.8,0.7,2.8,0.5c2.1-0.4,2.1-2.6,4.6-4.1c2.4-1.4,3.7-0.2,5.1-1.5 c2-2,0.4-6.4,0.3-6.9c-0.4-1-1.4-3.3-3.8-4.6C531.3,83.4,530.4,83.2,528.6,82.9z"/>
				<path class="moon-mid" d="M486.4,88.5c-1.9-0.4-2.6-1.4-3.8-1c-1.6,0.4-1.2,2.2-2.8,3c-2.5,1.4-5.3-1.9-7.9-0.5 c-0.8,0.4-0.4,0.7-2.3,2.8c-2,2.2-2.5,2-3,3c-0.9,1.8-0.2,3.8,1,7.4c0.9,2.5,1.3,3.7,2.3,4.1c1.3,0.5,2.1-0.8,5.3-1.8 c1-0.3,2.4-0.4,5.3-0.8c5.1-0.6,5.6-0.3,5.8,0c1.1,1.1-0.4,2.9,0.5,6.3c0.5,1.9,1.7,3.9,2.5,3.8c0.6-0.1,0.5-1.1,1.5-3 c0.6-1.2,1.3-2.6,2.5-3.3c1.6-0.9,3.4-0.4,5.6,0.3c3.7,1.1,6.9,3.3,6.9,3.3c0,0,3.1,1.2,5.1,0.3c0.9-0.4,1.4-1.3,2.3-3 c0.7-1.5,1.1-2.7,1.3-3.4c0.1-0.3,0.3-1.1,0.5-2.2c0.3-2.2,0.2-4.1,0-5.6c-0.4-4.1-0.8-7.7-3-8.9c-1.2-0.6-2-0.1-4.3,0.3 c-7.7,1.1-9.9-3-16.2-1.5C489.9,88.3,488.5,88.9,486.4,88.5z"/>
				<path class="moon-mid" d="M519.4,105.7c-1.8,1.8-2.1,4.9-1,6.9c0.4,0.7,0.5,0.5,1.8,2c1.6,2,1.6,2.6,2.5,3.6c0.2,0.2,1.9,1.8,4.3,1.8 c2.3,0,3.9-1.6,5.8-3.6c1.4-1.4,2.1-2.1,2.3-3.3c0.2-1.7-0.8-3.1-2-4.8c-1-1.4-1.6-2.3-2.8-3c-3.1-2.1-6.7-1.2-7.6-1 C521.5,104.5,520.4,104.7,519.4,105.7z"/>
				<path class="moon-mid" d="M423,99.1c0.3,0,0.4,3.7-1,4.6c-0.1,0.1-0.6,0.3-1.1,0.5c-0.7,0.3-1.2,0.4-1.4,0.5c-1.8,0.5-2.7,0.8-3.1,1.2 c-0.6,0.7-0.5,1.6-0.3,3.6c0.2,1.8,0.3,3.6,0.5,5.3c0.4,3.5-0.4,4-0.5,8.4c0,0.8,0,4.1,0.8,7.9c0.6,2.8,1,3.1,3.3,9.1 c3,8.1,2.6,8.4,4.1,10.1c1.9,2.2,3.1,2.3,6.1,5.8c0.5,0.6,1.2,1.6,2.8,3.6c2.8,3.6,2.8,3.8,3.6,4.6c0.5,0.6,1.5,1.7,5.6,4.6 c1.9,1.4,4.3,3.1,8.1,5.3c7.9,4.7,9,4.1,9.4,3.8c1.4-1-0.2-3.8,1.5-5.3c1.3-1.2,3.8-0.9,5.3-0.3c2,0.9,1.7,2.1,4.1,3.3 c1.3,0.6,2.4,0.8,4.1,1c1.7,0.2,2.5,0.3,3.6,0c0.3-0.1,1.9-0.7,2.8-2.3c1.1-2.1-0.3-3.5,0.8-5.1c1.1-1.6,3.7-1.7,4.3-1.8 c2.2-0.1,3.2,0.9,4.1,0.3c1.2-0.9,0.6-3.4,0.5-3.8c-0.1-0.6-0.7-2.8-2.8-4.3c-3.4-2.4-6.7,0-8.4-2c-0.5-0.5-0.4-2.5-0.3-6.3 c0.1-3.4,0.2-5,0.3-6.1c0.2-2.4,0.3-2.9,0-3.8c-0.8-2.1-3.4-3.7-4.8-3c-1.2,0.6-1.2,2.8-1.3,5.6c0,0.8,0.1,1.8,0.3,3.8 c0.2,2.2,0.3,3.2,0.5,5.3c0.2,2.5,0.3,3.7,0,3.8c-0.7,0.3-3-2.8-4.1-6.3c-0.6-2-0.7-3.6-0.5-7.9c0.4-10.2,0.9-11.2-0.3-12.9 c-2.2-3.1-7-3.7-8.1-3.8c-1.2-0.1-2.6-0.1-5.3,0c-4,0.1-5.6,0.3-5.6,0.3c-3,0.2-3.4,0.4-3.8,0c-1.1-1.2,0.7-5.1,2.5-7.6 c1.8-2.4,2.7-2.4,4.8-5.3c1.6-2.2,2.4-3.3,2.5-5.1c0.3-3.6-2.8-6.1-3-6.3c-1.9-1.6-5.3-2.8-7.1-1.5c-0.7,0.5-0.7,1-1.8,5.1 c-1.2,4.6-1.6,5.5-2,6.3c-0.8,1.6-1.5,2.8-2.8,3.8c-0.9,0.7-1.9,1-8.4,1.3c-3.5,0.2-7.4,0.3-7.4,0.3l0,0c0,0-3.9-2.1-4.3-4.8 c-0.2-1.1,0.3-1.9,1-3.3C423.3,103.6,422.7,99.1,423,99.1z"/>
			</g>
			<g>
				<path class="moon-peak" d="M454,73c-0.4,0.4-0.8,0.9-1.8,1.5c-1.2,0.8-2,0.9-3.6,1.5c-0.5,0.2-2.1,0.8-3.6,1.8 c-1.8,1.1-3.6,2.3-3.6,3.8c0,1.1,1.1,2,2.5,3c1.4,1.1,3.1,2.3,4.3,1.8c1.2-0.5,0.7-2,2.3-3.8c1-1.1,1.5-0.9,3.6-2.3 c2.4-1.6,2.3-2.3,4.6-4.1c2.9-2.2,4.6-2.1,4.6-2.8C463.3,72.2,456.8,70.5,454,73z"/>
				<path class="moon-peak" d="M490.8,97.6c-2,0.3-3.7-0.6-4.1-0.8c-2.4-1.3-2.1-3.3-4.1-4.1c-0.5-0.2-1-0.3-5.6,1 c-4.8,1.4-5.4,1.8-5.8,2.5c-0.7,1.2-0.9,3.1,0,4.1c0.8,0.9,2,0.4,6.6,0.3c1.7-0.1,3.5-0.1,5.6,0c2.4,0.2,3.6,0.5,6.1,1 c5.5,1.1,5.3,0.4,9.1,1.3c6.4,1.4,8.1,3.5,10.7,2.3c1.9-0.9,3.2-3,2.8-4.3c-0.5-1.5-3.2-0.6-6.6-2.8c-2.4-1.5-2.4-2.8-4.6-3.6 c-2.1-0.7-4.1-0.1-4.6,0C493.5,95.4,493.3,97.2,490.8,97.6z"/>
				<path class="moon-peak" d="M526.3,87.2c-1.4,0.1-1.4,2.3-3.6,3c-1.5,0.5-2.5-0.2-2.8,0.3c-0.4,0.7,1.3,2.8,3.3,4.1c1,0.6,2.9,1.7,4.3,1 c1.9-0.9,2.5-4.6,2.5-4.6l0,0C530.1,91,528.1,87.1,526.3,87.2z"/>
				<path class="moon-peak" d="M520.4,111c0-0.1,0.1-0.3,1.2-0.7c1.6-0.6,2.4-1,3.7-1.1c1.4-0.1,3.4-0.3,4.3,1c0.6,0.9,0.7,2.3,0,3 c-0.7,0.7-1.7,0.4-3.8,0C523.9,112.9,520.3,111.9,520.4,111z"/>
				<path class="moon-peak" d="M501.4,75.3c-0.4-0.2-2.9-1.2-4.6,0.3c-1.1,1-1.4,2.9-0.8,4.1c0.4,0.8,1.5,1.3,3.8,2.3 c0.8,0.4,0.8,0.3,1.8,0.8c2.9,1.2,3.2,1.7,3.5,1.5C506.3,83.5,505.5,77,501.4,75.3z"/>
				<path class="moon-peak" d="M448.1,108.8c0.2,0.1-1.5,4.4-5.1,7.9c-2.4,2.3-5.1,3.8-5.1,3.8c-2.3,1.3-3.1,1.3-4.3,2.5 c-0.3,0.3-2.1,2.2-2.3,5.1c-0.1,1.6,0.5,2.6,2.5,6.3c4.1,7.4,4.2,7.7,5.1,8.9c1.2,1.6,2.6,3.1,5.1,5.3c8,7.1,12,10.7,15,9.9 c6.3-1.7,9.4-21.4,2.3-26.6c-3.7-2.7-11.2-2.2-12.9-2c-4.6,0.4-7.1,1.6-8.4,0.3c-1.4-1.5-0.2-4.9,1.3-8.6 C444,114.5,447.9,108.6,448.1,108.8z"/>
				<path class="moon-peak" d="M471.2,158.2c1.3-0.2,1.8,1.4,5.3,4.3c1.9,1.5,2.7,1.9,2.8,2.8c0,1-0.9,1.8-2.8,3.3c-2,1.6-3,2.4-4.1,2.5 c-2.9,0.4-6.4-2.2-6.6-4.8c0-0.7,0.9-2.2,2.8-5.1C470.5,158.6,470.8,158.3,471.2,158.2z"/>
				<path class="moon-peak" d="M419.2,126c-0.4,0.1,0.7,6.1,3,12.4c0.9,2.3,2.1,5.5,4.6,9.4c1.5,2.4,3.6,5.7,7.4,8.9c3.5,3,4.8,2.8,7.6,5.8 c3.1,3.4,4.1,6.4,4.3,6.3c0.3-0.1-1.9-7.4-7.1-14.7c-1.1-1.5-2.8-3.5-6.3-7.6c-5.7-6.6-6.2-6.7-7.9-9.1 C420.5,131.2,419.6,125.9,419.2,126z"/>
				<path class="moon-peak" d="M466.4,114.6c-0.5,0.7,0.1,1.4,0,4.6c-0.1,2.1-0.3,2.5,0,2.8c1.3,1.1,8.9-3.8,8.1-6.3 C473.9,113.5,467.7,112.7,466.4,114.6z"/>
				<path class="moon-peak" d="M524,136.7c-1.3,0.6-1,1.7-2.8,3c-2,1.5-3.4,0.8-4.6,2.3c-0.8,1.1-0.2,1.6-1,3c-1,1.7-2.1,1.4-4.1,3.6 c-0.8,0.9-1.5,1.6-1.8,2.8c-0.5,1.8,0.4,2.5-0.3,3.3c-0.6,0.8-1.8,0.3-5.1,0.5c-1.9,0.1-2.8,0.2-3.8,0.8c-1.6,0.9-2.4,2.3-2.8,3 c-0.3,0.5-0.6,1.5-1.3,3.6c-0.7,2.2-0.7,2.4-1,3c-0.3,0.7-1,2.4-2,3.3c-2.7,2.5-7.4-0.7-9.1,1.3c-1.4,1.7,1.1,4.7-0.5,6.6 c-0.9,1.1-1.9,0.4-5.1,1.5c-3.6,1.2-3.8,2.5-5.3,2.3c-2.5-0.3-2.4-3.6-6.1-5.3c-0.6-0.3-3.3-1.5-5.1-0.3c-1,0.7-1.7,2.2-1.3,3 c0.5,0.9,1.7,0.3,3.8,1c2.5,0.9,2.7,2.4,5.6,3.8c0.4,0.2,1.4,0.6,3.6,1c11,2,19.8,0,19.8,0c5.7-1.3,13-2.9,13.7-6.9 c0.5-2.8-2.7-4.1-3-9.1c-0.1-1.1-0.3-4.8,2-7.4c3.4-3.8,10.6-3.4,13.7-0.3c2.2,2.3,2.2,5.9,2.5,5.8c0.5-0.1-2.4-9.7,1.3-12.7 c2.2-1.8,4.7,0.3,6.9-1.5c3-2.5,2.6-10-1.3-13.4C528.3,137.3,525.8,135.9,524,136.7z"/>
				<path class="moon-peak" d="M502.2,128.8c-1.5-3.2-9.4-2.6-10.1-0.5c-0.8,2,4.4,7.6,7.9,6.1C501.8,133.6,503,130.6,502.2,128.8z"/>
				<path class="moon-peak" d="M514.4,122.5c-1,0.6-0.6,3.3,0.3,5.1c1.6,3.4,5.7,5.5,6.9,4.6c1.1-0.9-0.4-4.7-2.5-7.1 C517.7,123.7,515.4,121.8,514.4,122.5z"/>
				<path class="moon-peak" d="M450.9,154.9c-0.2,0.4,4.9,1.6,7.6,5.8c2.2,3.5,1.5,7,2.5,7.1c1,0.1,2.4-3.4,3-6.1c1.7-6.8,0.3-13-0.3-12.9 c-0.5,0,0.7,5.3-2,7.4C458.4,158.7,451.1,154.5,450.9,154.9z"/>
				<path class="moon-peak" d="M478.1,65.1c0.1-1.9-2.9-3.3-4.3-3.8c-2.1-0.7-3.9-0.3-5.3,0c-3.3,0.7-6.3,2.6-6.1,3.3 c0.2,0.6,2.8-0.5,5.1,1c1.4,0.9,1.1,1.8,2.5,2.5c2.2,1.2,4.8,0.1,5.1,0C475.5,67.9,478,66.9,478.1,65.1z"/>
			</g>
			<circle class="moon-wash" fill-opacity="0.19" cx="481.4" cy="120.9" r="68.3"/>
			<g clip-path="url(#moonClipping)" id="phase-mask--new" class="phase">
				<circle class="moon-shadow" opacity="0.57" cx="481.4" cy="120.9" r="68.3"/>
			</g>
			<g clip-path="url(#moonClipping)" id="phase-mask--waxing-crescent" class="phase">
				<circle class="moon-shadow" opacity="0.57" transform="translate(-16 -16)" cx="481.4" cy="120.9" r="68.3"/>
			</g>
			<g clip-path="url(#moonClipping)" id="phase-mask--first-quarter" class="phase">
				<rect class="moon-shadow" opacity="0.57" x="481.4" y="52.6" transform="rotate(-135 481.4 120.9)" width="136.6" height="136.6"  />
			</g>
			<g clip-path="url(#moonClipping)" id="phase-mask--waxing-gibbous" class="phase">
				<circle mask="url(#gibbous)" class="moon-shadow" opacity="0.57" cx="481.4" cy="120.9" r="68.3"/>
			</g>
			<g clip-path="url(#moonClipping)" id="phase-mask--waning-gibbous" class="phase">
				<circle mask="url(#gibbous)" transform="rotate(180 481.4 120.9)" class="moon-shadow" opacity="0.57" cx="481.4" cy="120.9" r="68.3"/>
			</g>
			<g clip-path="url(#moonClipping)" id="phase-mask--last-quarter" class="phase">
				<rect class="moon-shadow" opacity="0.57" x="481.4" y="52.6" transform="rotate(45 481.4 120.9)" width="136.6" height="136.6"  />
			</g>
			<g clip-path="url(#moonClipping)" id="phase-mask--waning-crescent" class="phase">
				<circle class="moon-shadow" opacity="0.57" transform="rotate(180 481.4 120.9) translate(-16 -16)" cx="481.4" cy="120.9" r="68.3"/>
			</g>
		</g>
	</g>
	<g transform="matrix(1,0,0,1,493.604,277.095)">
		<g id="MOUNTAINS_1" transform="matrix(0.823989,0,0,0.823989,385.298,45.9084)">
			<path class="mountain" style="fill-rule:nonzero;" d="M267,321L-15.8,918.7L549.7,918.7L267,321Z"/>
			<path class="mountain-snow" style="fill-rule:nonzero;" d="M267,321L353.3,503.5L313.2,457.2L267,466L237.6,483.1L180.6,503.5L267,321Z"/>
			<path class="mountain-shadow" style="fill-opacity:0.38;fill-rule:nonzero;" d="M267,321L75.3,918.7L-15.8,918.7L267,321Z"/>
		</g>
		<g id="MOUNTAINS_2" transform="matrix(1,0,0,1,440.026,-214.509)">
			<path class="mountain" style="fill-rule:nonzero;" d="M410.4,419.9L127.7,1017.7L693.2,1017.7L410.4,419.9Z"/>
			<path class="mountain-snow" style="fill-rule:nonzero;" d="M410.4,419.9L496.8,602.4L435.8,548.2L419.053,544.225L385.232,573.353L345.311,556.715L410.4,419.9Z"/>
			<path class="mountain-shadow" style="fill-opacity:0.38;fill-rule:nonzero;" d="M410.4,419.9L288.4,1017.7L127.7,1017.7L410.4,419.9Z"/>
		</g>
		<g id="MOUNTAINS_3" transform="matrix(0.722557,0,0,0.722557,-213.72,67.5366)">
			<path class="mountain" style="fill-rule:nonzero;" d="M410.4,419.9L127.7,1017.7L693.2,1017.7L410.4,419.9Z"/>
			<path class="mountain-snow" style="fill-rule:nonzero;" d="M410.4,419.9L496.8,602.4L460.207,574.641L399.127,622.073L383.354,523.69L324.1,602.4L410.4,419.9Z"/>
			<path class="mountain-shadow" style="fill-opacity:0.38;fill-rule:nonzero;" d="M410.4,419.9L288.4,1017.7L127.7,1017.7L410.4,419.9Z"/>
		</g>
		<g id="MOUNTAINS_4" transform="matrix(1,0,0,1.25929,-20.0425,-478.79)">
			<path class="mountain" style="fill:rgb(26,32,36);fill-rule:nonzero;" d="M410.4,419.9L127.7,1017.7L693.2,1017.7L410.4,419.9Z"/>
			<path class="mountain-snow" style="fill:rgb(172,172,172);fill-rule:nonzero;" d="M410.4,419.9L496.8,602.4L435.8,548.2L421.5,599.7L368.1,560.3L324.1,602.4L410.4,419.9Z"/>
			<path class="mountain-shadow" style="fill:rgb(18,18,18);fill-opacity:0.38;fill-rule:nonzero;" d="M410.4,419.9L288.4,1017.7L127.7,1017.7L410.4,419.9Z"/>
		</g>
	</g>
</svg>
