<svg class="landscape" width="100%" height="100%" viewBox="0 0 1920 1080" version="1.1" xmlns="http://www.w3.org/2000/svg" xmlns:xlink="http://www.w3.org/1999/xlink" xml:space="preserve" xmlns:serif="http://www.serif.com/" style="fill-rule:evenodd;clip-rule:evenodd;stroke-linejoin:round;stroke-miterlimit:2;">
	<style>
		.tentacle__sucker {
			fill: var(--theme_tentacleSucker, hsl(204, 16%, 6%)) !important;
		}
		.tentacle__underside {
			fill: var(--theme_tentacleUnderside, hsl(152, 20%, 25%)) !important;
		}
		.tentacle__skin {
			fill: var(--theme_tentacle, hsl(204, 16%, 6%)) !important;
		}
		.mountain-glow {
			color: var(--theme_mountainGlow, hsl(76, 100%, 56%));
		}
	</style>
	<clipPath id="moonClipping">
		<circle cx="481.4" cy="120.9" r="68.3" />
	</clipPath>
	<mask id="gibbous">
		<circle fill="white" cx="481.4" cy="120.9" r="68.3" />
		<circle fill="black" cx="481.4" cy="120.9" r="68.3" transform="translate(16 16)" />
	</mask>
	<defs>
		<radialGradient class="mountain-glow" id="glow" cx=".5" cy="1" gradientTransform="matrix(-1, 0, 0, 1.750523, 1, -0.750523)">
			<stop offset="0" stop-color="currentColor"/>
			<stop offset="1" stop-color="transparent"/>
		</radialGradient>
	</defs>
	<rect x="0" y="0" width="1920" height="1080" fill="url(#glow)" />
	<g transform="matrix(1,0,0,1,493.604,277.095)">
		<g id="TENTACLES" transform="matrix(0.377132,-0.355358,0.355358,0.377132,-595.646,22.6639)">
			<g id="Layer1">
				<path class="tentacle__underside" style="stroke-width:8px;stroke: var(--theme_tentacle);" d="M138.624,2068.49L139.338,1934.8L160,1826.58L197.113,1733.08L244.545,1653.95L321.556,1570.2L388.269,1504.12L432.179,1467.08L475.51,1424.96L518.485,1376.14L549.824,1334.77L569.305,1286.91L576.126,1215.29L569.55,1161.88L538.434,1095.07L494.746,1020.62L447.091,927.506L417.736,848.568L408.686,770.144L428.412,686.042L471.275,626.767L515.297,596.905L577.062,580.097L639.295,580.675L710.577,605.726L750.253,641.586L795.813,716.386L725.957,641.714L659.734,619.133L586.223,617.144L526.821,643.222L493.231,677.35L472.68,730.146L474.441,787.882L489.241,842.217L527.869,918.909L559.453,964.777L588.452,1017L620.148,1056.38L648.924,1101.32L675.939,1168.36L682.737,1226.67L678.502,1308.05L658.442,1374.38L618.521,1442.03L572.359,1500.34L530.566,1548.1L502.28,1588.19L396.939,1690.39L337.76,1770.61L309.23,1836.71L292.334,1889.16L280.833,1950.55L276.709,2065.57L138.624,2068.49Z"/>
				<g class="tentacle__suckers">
					<path class="tentacle__sucker" transform="matrix(-0.0422589,-0.0631468,0.0481396,-0.0322158,452.682,737.974)" d="M242.52,288.586C297.269,288.586 329.441,349.475 329.441,406.375C329.441,463.275 295.327,485.603 240.578,485.603C185.83,485.603 152.389,420.98 152.389,364.08C152.389,307.18 187.772,288.586 242.52,288.586Z"/>
					<path class="tentacle__sucker" transform="matrix(-0.0501926,-0.075002,0.0569097,-0.0380849,441.257,776.986)" d="M242.52,288.586C297.269,288.586 329.441,349.475 329.441,406.375C329.441,463.275 295.327,485.603 240.578,485.603C185.83,485.603 152.389,420.98 152.389,364.08C152.389,307.18 187.772,288.586 242.52,288.586Z"/>
					<path class="tentacle__sucker" transform="matrix(-0.0596157,-0.0890829,0.0672774,-0.0450231,437.363,822.346)" d="M242.52,288.586C297.269,288.586 329.441,349.475 329.441,406.375C329.441,463.275 295.327,485.603 240.578,485.603C185.83,485.603 152.389,420.98 152.389,364.08C152.389,307.18 187.772,288.586 242.52,288.586Z"/>
					<path class="tentacle__sucker" transform="matrix(-0.0659511,-0.0985496,0.0784558,-0.0525039,437.96,863.929)" d="M242.52,288.586C297.269,288.586 329.441,349.475 329.441,406.375C329.441,463.275 295.327,485.603 240.578,485.603C185.83,485.603 152.389,420.98 152.389,364.08C152.389,307.18 187.772,288.586 242.52,288.586Z"/>
					<path class="tentacle__sucker" transform="matrix(-0.0722047,-0.107894,0.0939047,-0.0628426,445.262,904.013)" d="M242.52,288.586C297.269,288.586 329.441,349.475 329.441,406.375C329.441,463.275 295.327,485.603 240.578,485.603C185.83,485.603 152.389,420.98 152.389,364.08C152.389,307.18 187.772,288.586 242.52,288.586Z"/>
					<path class="tentacle__sucker" transform="matrix(-0.0722047,-0.107894,0.0939047,-0.0628426,459.791,936.029)" d="M242.52,288.586C297.269,288.586 329.441,349.475 329.441,406.375C329.441,463.275 295.327,485.603 240.578,485.603C185.83,485.603 152.389,420.98 152.389,364.08C152.389,307.18 187.772,288.586 242.52,288.586Z"/>
					<path class="tentacle__sucker" transform="matrix(-0.0722047,-0.107894,0.0939047,-0.0628426,472.202,966.165)" d="M242.52,288.586C297.269,288.586 329.441,349.475 329.441,406.375C329.441,463.275 295.327,485.603 240.578,485.603C185.83,485.603 152.389,420.98 152.389,364.08C152.389,307.18 187.772,288.586 242.52,288.586Z"/>
					<path class="tentacle__sucker" transform="matrix(-0.0956014,-0.142856,0.10215,-0.0683607,494.031,1016.25)" d="M242.52,288.586C297.269,288.586 329.441,349.475 329.441,406.375C329.441,463.275 295.327,485.603 240.578,485.603C185.83,485.603 152.389,420.98 152.389,364.08C152.389,307.18 187.772,288.586 242.52,288.586Z"/>
					<path class="tentacle__sucker" transform="matrix(-0.0863155,-0.12898,0.0927641,-0.0620792,517.623,1047.79)" d="M242.52,288.586C297.269,288.586 329.441,349.475 329.441,406.375C329.441,463.275 295.327,485.603 240.578,485.603C185.83,485.603 152.389,420.98 152.389,364.08C152.389,307.18 187.772,288.586 242.52,288.586Z"/>
					<path class="tentacle__sucker" transform="matrix(-0.10384,-0.155167,0.120506,-0.0806446,538.784,1102.26)" d="M242.52,288.586C297.269,288.586 329.441,349.475 329.441,406.375C329.441,463.275 295.327,485.603 240.578,485.603C185.83,485.603 152.389,420.98 152.389,364.08C152.389,307.18 187.772,288.586 242.52,288.586Z"/>
					<path class="tentacle__sucker" transform="matrix(-0.124923,-0.186671,0.156544,-0.104762,563.226,1168.47)" d="M242.52,288.586C297.269,288.586 329.441,349.475 329.441,406.375C329.441,463.275 295.327,485.603 240.578,485.603C185.83,485.603 152.389,420.98 152.389,364.08C152.389,307.18 187.772,288.586 242.52,288.586Z"/>
					<path class="tentacle__sucker" transform="matrix(-0.150286,-0.224571,0.20336,-0.136092,581.703,1253.29)" d="M242.52,288.586C297.269,288.586 329.441,349.475 329.441,406.375C329.441,463.275 295.327,485.603 240.578,485.603C185.83,485.603 152.389,420.98 152.389,364.08C152.389,307.18 187.772,288.586 242.52,288.586Z"/>
					<path class="tentacle__sucker" transform="matrix(-0.173603,-0.259412,0.241615,-0.161693,588.057,1345.46)" d="M242.52,288.586C297.269,288.586 329.441,349.475 329.441,406.375C329.441,463.275 295.327,485.603 240.578,485.603C185.83,485.603 152.389,420.98 152.389,364.08C152.389,307.18 187.772,288.586 242.52,288.586Z"/>
					<path class="tentacle__sucker" transform="matrix(0.140245,-0.356298,0.270525,0.106483,483.889,1362.23)" d="M242.52,288.586C297.269,288.586 329.441,349.475 329.441,406.375C329.441,463.275 295.327,485.603 240.578,485.603C185.83,485.603 152.389,420.98 152.389,364.08C152.389,307.18 187.772,288.586 242.52,288.586Z"/>
					<path class="tentacle__sucker" transform="matrix(0.160866,-0.408686,0.320892,0.126309,407.421,1460.52)" d="M242.52,288.586C297.269,288.586 329.441,349.475 329.441,406.375C329.441,463.275 295.327,485.603 240.578,485.603C185.83,485.603 152.389,420.98 152.389,364.08C152.389,307.18 187.772,288.586 242.52,288.586Z"/>
					<path class="tentacle__sucker" transform="matrix(0.173851,-0.441676,0.385164,0.151607,285.551,1561.72)" d="M242.52,288.586C297.269,288.586 329.441,349.475 329.441,406.375C329.441,463.275 295.327,485.603 240.578,485.603C185.83,485.603 152.389,420.98 152.389,364.08C152.389,307.18 187.772,288.586 242.52,288.586Z"/>
					<path class="tentacle__sucker" transform="matrix(0.13386,0.502392,-0.42826,0.114108,500.092,1453.9)" d="M242.52,288.586C297.269,288.586 329.441,349.475 329.441,406.375C329.441,463.275 295.327,485.603 240.578,485.603C185.83,485.603 152.389,420.98 152.389,364.08C152.389,307.18 187.772,288.586 242.52,288.586Z"/>
					<path class="tentacle__sucker" transform="matrix(-0.288915,0.432256,-0.368472,-0.246283,494.618,1732.48)" d="M242.52,288.586C297.269,288.586 329.441,349.475 329.441,406.375C329.441,463.275 295.327,485.603 240.578,485.603C185.83,485.603 152.389,420.98 152.389,364.08C152.389,307.18 187.772,288.586 242.52,288.586Z"/>
					<path class="tentacle__sucker" transform="matrix(0.162651,0.493823,-0.420955,0.13865,345.096,1712.42)" d="M242.52,288.586C297.269,288.586 329.441,349.475 329.441,406.375C329.441,463.275 295.327,485.603 240.578,485.603C185.83,485.603 152.389,420.98 152.389,364.08C152.389,307.18 187.772,288.586 242.52,288.586Z"/>
					<path class="tentacle__sucker" transform="matrix(0.0218257,0.669761,-0.546858,0.0178206,416.557,1897.67)" d="M242.52,288.586C242.657,289.509 242.369,485.13 240.578,485.603C187.643,499.576 135.672,438.429 153.618,384.433C180.472,303.633 240.762,276.678 242.52,288.586Z"/>
				</g>
			</g>
			<path class="tentacle__skin" d="M423.598,2065.57L446.155,2004.63L456.42,1909.36L410.482,1809.5L359.687,1727.26L307.861,1665.42L204.331,1499.13L162.535,1367.44L157.743,1262.07L201.383,1141.45L263.283,1048.07L345.571,978.022L444.505,934.658L520.246,923.015L601.848,936.904L686.504,958.779L787.833,1012.41L867.675,1070.37L924.268,1138.59L958.55,1197.74L1008.46,1301.25L961.715,1244.22L898.68,1181.77L822.694,1130.96L715.119,1068.86L612.373,1046.9L495.815,1036.74L378.55,1092.73L314.946,1182.06L286.046,1303.25L331.147,1434.11L402.069,1531.48L496.136,1652.14L576.85,1769.79L610.232,1910.62L585.813,2066.32L423.598,2065.57Z"/>
			<path class="tentacle__skin" d="M307.297,2065.02L316.05,1994.4L326.147,1921.04L339.41,1843.07L355.971,1786.26L394.131,1719.8L446.378,1658.28L491.693,1630.18L557.581,1603.98L633.544,1585.98L725.621,1570.36L806.594,1566.03L884.57,1552.91L953.735,1517.53L999.05,1478.02L979.212,1515.77L940.829,1556.22L845.353,1590.95L715.685,1609.88L608.779,1638.91L532.744,1667.77L470.707,1708.93L422.81,1789.09L406.69,1861.44L395.171,1952.05L388.139,2005.99L386.378,2066.99L307.297,2065.02Z"/>

			<g id="right" transform="matrix(-0.234759,1.19694,-1.19694,-0.234759,4133.75,-755.951)">
				<g id="Layer7">
						<path class="tentacle__skin" d="M2810.9,1541.49L2914.09,1595.34L2998.66,1665.98L3052.91,1743.61L3103.24,1854.01L3137.01,1934.51L3176.72,2048.95L2928.96,2055.66L2902.06,1821.99L2794.77,1661.01L2698.34,1631.99L2592.64,1610.81L2506.55,1591.94L2420.98,1543.36L2364.74,1482.06L2331.45,1382.71L2343.65,1273.43L2388.04,1191.82L2478.85,1128.75L2567.64,1123.88L2661.3,1151.43L2729.77,1207.8L2764.78,1288.93L2728.05,1373.62L2653.94,1405.09L2588.3,1381.78L2690.68,1354.9L2715.24,1297.14L2684.85,1223.69L2614.46,1184.77L2513.65,1176.33L2444.62,1228.34L2408.19,1302.56L2413.51,1393.05L2445.73,1454.25L2494.34,1494.17L2573.91,1510.32L2690.68,1525.99L2810.9,1541.49Z"/>
						<path class="tentacle__underside" d="M2819.92,1538.1L2888.2,1581.65L2733.56,1556.51L2595.44,1545.26L2522.19,1533.06L2449.99,1489.97L2359.02,1381.45L2371.28,1303.16L2393.58,1247.45L2437.76,1205.24L2472.33,1177.55L2532.58,1156.68L2614.46,1184.77L2532.31,1190.12L2462.23,1235.15L2425.46,1291.12L2421.22,1367.43L2464.1,1436.29L2504.59,1484.59L2586.61,1497.15L2702.54,1513.81L2819.92,1538.1Z"/>
						<g class="tentacle__suckers">
							<path class="tentacle__sucker" transform="matrix(0.202953,0.060455,-0.0364757,0.122452,2765.56,1490.61)" d="M235.049,290.484C289.798,290.484 317.136,279.305 317.136,336.205C317.136,393.105 295.317,460.121 240.569,460.121C185.821,460.121 163.808,426.205 163.808,369.305C163.808,312.405 180.301,290.484 235.049,290.484Z"/>
							<path class="tentacle__sucker" transform="matrix(0.209752,0.0291359,-0.0175792,0.126554,2702.7,1486.53)" d="M235.049,290.484C289.798,290.484 317.136,279.305 317.136,336.205C317.136,393.105 295.317,460.121 240.569,460.121C185.821,460.121 163.808,426.205 163.808,369.305C163.808,312.405 180.301,290.484 235.049,290.484Z"/>
							<path class="tentacle__sucker" transform="matrix(-0.171213,-0.119378,0.0787898,-0.113001,2700.33,1603.34)" d="M235.049,290.484C289.798,290.484 317.136,279.305 317.136,336.205C317.136,393.105 295.317,460.121 240.569,460.121C185.821,460.121 163.808,426.205 163.808,369.305C163.808,312.405 180.301,290.484 235.049,290.484Z"/>
							<path class="tentacle__sucker" transform="matrix(0.253563,0.0519126,-0.031316,0.15296,2582.4,1455.76)" d="M235.049,290.484C289.798,290.484 317.136,279.305 317.136,336.205C317.136,393.105 295.317,460.121 240.569,460.121C185.821,460.121 163.808,426.205 163.808,369.305C163.808,312.405 180.301,290.484 235.049,290.484Z"/>
							<path class="tentacle__sucker" transform="matrix(0.24007,0.0131,-0.00881034,0.161457,2517.6,1454.41)" d="M227.221,279.15C281.969,279.15 324.65,266.673 324.65,323.573C324.65,380.473 325.374,465.525 270.626,465.525C215.878,465.525 156.068,447.962 156.068,391.062C156.068,334.162 172.472,279.15 227.221,279.15Z"/>
							<path class="tentacle__sucker" transform="matrix(0.184657,0.0581029,-0.0362007,0.115049,2482.64,1449.31)" d="M235.049,290.484C289.798,290.484 317.136,279.305 317.136,336.205C317.136,393.105 295.317,460.121 240.569,460.121C185.821,460.121 163.808,426.205 163.808,369.305C163.808,312.405 180.301,290.484 235.049,290.484Z"/>
							<path class="tentacle__sucker" transform="matrix(0.128211,0.145038,-0.0903649,0.0798813,2472.38,1411.01)" d="M230.24,273.761C284.989,273.761 317.136,279.305 317.136,336.205C317.136,393.105 313.266,478.911 258.517,478.911C203.769,478.911 163.808,426.205 163.808,369.305C163.808,312.405 175.492,273.761 230.24,273.761Z"/>
							<path class="tentacle__sucker" transform="matrix(0.102723,0.164079,-0.102229,0.0640009,2454.8,1377.16)" d="M235.049,290.484C289.798,290.484 317.136,279.305 317.136,336.205C317.136,393.105 296.719,476.81 241.971,476.81C187.223,476.81 127.28,415.065 127.28,358.165C127.28,301.265 180.301,290.484 235.049,290.484Z"/>
							<path class="tentacle__sucker" transform="matrix(-0.112227,-0.157731,0.121427,-0.0863965,2388.44,1464.89)" d="M195.526,288.765C250.274,288.765 317.136,279.305 317.136,336.205C317.136,393.105 289.508,445.463 234.76,445.463C180.012,445.463 125.392,447.58 125.392,390.68C125.392,333.78 140.777,288.765 195.526,288.765Z"/>
							<path class="tentacle__sucker" transform="matrix(-0.0349228,0.211029,-0.166025,-0.0274752,2460.79,1314.91)" d="M204.66,287.536C259.408,287.536 317.136,279.305 317.136,336.205C317.136,393.105 317.176,425.427 262.428,425.427C207.68,425.427 110.695,430.36 110.695,373.46C110.695,316.56 149.912,287.536 204.66,287.536Z"/>
							<path class="tentacle__sucker" transform="matrix(-0.0648761,0.182387,-0.113635,-0.0404207,2457.41,1269.5)" d="M230.24,273.761C284.989,273.761 317.136,279.305 317.136,336.205C317.136,393.105 313.266,478.911 258.517,478.911C203.769,478.911 163.808,426.205 163.808,369.305C163.808,312.405 175.492,273.761 230.24,273.761Z"/>
							<path class="tentacle__sucker" transform="matrix(-0.108278,0.160468,-0.0687483,-0.046389,2473.25,1230.08)" d="M230.24,273.761C284.989,273.761 317.136,279.305 317.136,336.205C317.136,393.105 313.266,478.911 258.517,478.911C203.769,478.911 163.808,426.205 163.808,369.305C163.808,312.405 175.492,273.761 230.24,273.761Z"/>
							<path class="tentacle__sucker" transform="matrix(-0.138256,0.135497,-0.0580502,-0.0592321,2509.62,1208.09)" d="M230.24,273.761C284.989,273.761 290.482,284.794 290.482,341.694C290.482,398.594 313.266,478.911 258.517,478.911C203.769,478.911 185.043,466.261 185.043,409.361C185.043,352.461 175.492,273.761 230.24,273.761Z"/>
						</g>
				</g>
				<g id="Layer5">
					<path class="tentacle__skin" d="M3253.42,2044.66L3224.32,1992.05L3211.55,1944.5L3215.53,1895.98L3224.49,1854.61L3240.33,1820.65C3240.33,1820.65 3268.75,1762.86 3267.48,1762.84C3266.21,1762.82 3288.13,1711.7 3288.13,1711.7L3330.89,1627.35L3363.49,1562.46L3391.05,1500.73L3415.85,1433.39L3433.41,1371.92L3444.14,1273.72L3442.02,1195.88L3430.88,1114.13L3386.25,1042.38L3332.51,992.635L3273.17,943.534L3220.81,913.176L3157.65,898.186L3090.42,892.901L3002.7,909.023L2889.38,983.775L2840.93,1043.78L2805.82,1191.08L2831.67,1330.3L2864.01,1374.03L2944.09,1418.91L3021.81,1429.73L3059.37,1421.18L3091.24,1399.61L3105.7,1351.73L3060.67,1272.01L3074.19,1358.56L3052,1383.61L2994.42,1390.33L2933.44,1360.11L2884.83,1305.56L2882.87,1207.76L2900.93,1143.03L2953.2,1069.67L3008.72,1036.85L3083.83,1020.97L3126.44,1030.01L3169.44,1048.49L3201.47,1070.07L3229.11,1096.37L3265.69,1160.3L3277.48,1226.82L3262.36,1312.65L3244.32,1382.27L3213.17,1438.7L3178.79,1506.77L3151.23,1551.14L3084.82,1669.7L3044.82,1727.27L3017.02,1786.74L3000.29,1847.7L2991.29,1909.58L2989.86,1969.76L2989.19,2056.14L3253.42,2044.66Z"/>
					<path class="tentacle__underside" d="M3122.12,2051.99L3122.88,1963.01L3132.15,1883.04L3171.77,1752.74L3204.07,1672.07L3242.5,1600.3L3285.25,1517.3L3330.29,1392.89L3344.81,1320.94L3346,1227.95L3333.25,1163.31L3306.44,1101.66L3212.18,1024.41L3126.44,1030.01L3169.44,1048.49L3201.47,1070.07L3229.11,1096.37L3265.69,1160.3L3277.48,1226.82L3262.36,1312.65L3244.32,1382.27L3213.17,1438.7L3178.79,1506.77L3151.23,1551.14L3084.82,1669.7L3044.82,1727.27L3017.02,1786.74L3000.29,1847.7L2991.29,1909.58L2989.86,1969.76L2989.19,2056.14L3122.12,2051.99Z"/>
					<g class="tentacle__suckers">
						<path class="tentacle__sucker" transform="matrix(-0.0669504,0.0643027,-0.143303,-0.149204,3329.77,1137.31)" d="M244.502,289.05C300.511,289.24 347.712,330.24 347.712,387.14C347.712,444.04 349.765,498.278 257.062,517.157C203.313,528.103 151.43,420.194 151.43,363.294C151.43,306.394 194.34,288.88 244.502,289.05Z"/>
						<path class="tentacle__sucker" transform="matrix(-0.115952,0.0130744,-0.0267436,-0.237178,3337.87,1260.66)" d="M244.502,289.05C300.511,289.24 347.712,330.24 347.712,387.14C347.712,444.04 349.765,498.278 257.062,517.157C203.313,528.103 151.43,420.194 151.43,363.294C151.43,306.394 194.34,288.88 244.502,289.05Z"/>
						<path class="tentacle__sucker" transform="matrix(-0.116328,-0.00913204,0.0186795,-0.237949,3330.33,1362.74)" d="M244.502,289.05C300.511,289.24 347.712,330.24 347.712,387.14C347.712,444.04 349.765,498.278 257.062,517.157C203.313,528.103 151.43,420.194 151.43,363.294C151.43,306.394 194.34,288.88 244.502,289.05Z"/>
						<path class="tentacle__sucker" transform="matrix(-0.142233,-0.0415144,0.0785748,-0.269206,3294.32,1479.96)" d="M244.502,289.05C300.511,289.24 347.712,330.24 347.712,387.14C347.712,444.04 349.765,498.278 257.062,517.157C203.313,528.103 151.43,420.194 151.43,363.294C151.43,306.394 194.34,288.88 244.502,289.05Z"/>
						<path class="tentacle__sucker" transform="matrix(-0.139838,-0.0708333,0.118932,-0.234792,3238.98,1569.71)" d="M244.502,289.05C300.511,289.24 347.712,330.24 347.712,387.14C347.712,444.04 349.765,498.278 257.062,517.157C203.313,528.103 151.43,420.194 151.43,363.294C151.43,306.394 194.34,288.88 244.502,289.05Z"/>
						<path class="tentacle__sucker" transform="matrix(-0.194533,-0.098539,0.171817,-0.339197,3179.06,1721)" d="M244.502,289.05C300.511,289.24 337.394,319.885 337.394,376.785C337.394,433.685 333.282,466.723 240.578,485.603C186.83,496.549 160.265,445.425 160.265,388.525C160.265,331.625 194.34,288.88 244.502,289.05Z"/>
						<path class="tentacle__sucker" transform="matrix(-0.23049,-0.116752,0.188089,-0.371322,3113.85,1851.33)" d="M244.502,289.05C300.511,289.24 337.394,319.885 337.394,376.785C337.394,433.685 333.282,466.723 240.578,485.603C186.83,496.549 160.265,445.425 160.265,388.525C160.265,331.625 194.34,288.88 244.502,289.05Z"/>
						<path class="tentacle__sucker" transform="matrix(-0.356549,-0.0641547,0.0931596,-0.517748,3126.28,2031.95)" d="M244.502,289.05C300.511,289.24 337.394,319.885 337.394,376.785C337.394,433.685 333.282,466.723 240.578,485.603C186.83,496.549 160.265,445.425 160.265,388.525C160.265,331.625 194.34,288.88 244.502,289.05Z"/>
						<path class="tentacle__sucker" transform="matrix(0.162651,0.493823,-0.420955,0.13865,3179.11,1802.97)" d="M242.52,288.586C297.269,288.586 329.441,349.475 329.441,406.375C329.441,463.275 295.327,485.603 240.578,485.603C185.83,485.603 152.389,420.98 152.389,364.08C152.389,307.18 187.772,288.586 242.52,288.586Z"/>
					</g>
				</g>
				<g id="Layer6">
					<path class="tentacle__skin" d="M3403.82,2045.74L3390.96,1992L3374.59,1953.27L3354.52,1922.97L3315.44,1889L3263.82,1863.1L3206.5,1850.75L3151.99,1847.48L3082.42,1856.47L3028.47,1875.4L2975.11,1894.86L2920.93,1915.37L2862.88,1940.83L2801.62,1974.94L2755.16,1998.1L2681.88,2016.35L2640.62,2016.04L2612.01,2003.09L2591.54,1984.56L2581.57,1958.13L2581.75,1935.51L2588.51,1916.84L2600.91,1896.55L2616.32,1882.67L2630.76,1874.03L2639.92,1865.91L2612.12,1876.39L2600.42,1885.07L2589.14,1897.22L2581.14,1907.81L2573.82,1920.26L2566.28,1939.77L2565.33,1968.36L2579.07,2003.48L2599.96,2025.96L2639.67,2046.5L2678.36,2048.26L2724.49,2046.99L2766.3,2034.22L2802.49,2018.73L2834.16,2004.52L2883.51,1981.56L2925.38,1965.03L2971.33,1949.04L3025.91,1927.27L3077.93,1910.8L3128.98,1905.67L3193.49,1912.95L3244.48,1928.52L3293.76,1963.94L3317.87,2003.19L3324.94,2045.95L3403.82,2045.74Z"/>
					<path class="tentacle__underside" d="M3403.82,2045.74L3390.96,1992L3374.59,1953.27L3354.52,1922.97L3315.44,1889L3263.82,1863.1L3206.5,1850.75L3151.99,1847.48L3082.42,1856.47L3028.47,1875.4L2975.11,1894.86L3144.29,1869.52L3191.27,1874.43L3233.36,1890.2L3299.91,1936.95L3331.37,1977.77L3342.28,2045.27L3403.82,2045.74Z"/>
					<g class="tentacle__suckers">
						<path class="tentacle__sucker" transform="matrix(0.0447471,0.230932,-0.133989,0.0259627,3406.83,1946.15)" d="M242.52,288.586C297.269,288.586 329.441,349.475 329.441,406.375C329.441,463.275 295.327,485.603 240.578,485.603C185.83,485.603 152.389,420.98 152.389,364.08C152.389,307.18 187.772,288.586 242.52,288.586Z"/>
						<path class="tentacle__sucker" transform="matrix(0.103884,0.184932,-0.101778,0.0571734,3361.2,1889.01)" d="M242.52,288.586C297.269,288.586 329.441,349.475 329.441,406.375C329.441,463.275 295.327,485.603 240.578,485.603C185.83,485.603 152.389,420.98 152.389,364.08C152.389,307.18 187.772,288.586 242.52,288.586Z"/>
						<path class="tentacle__sucker" transform="matrix(0.171125,0.12533,-0.0689763,0.0941798,3295.6,1848.09)" d="M242.52,288.586C297.269,288.586 329.441,349.475 329.441,406.375C329.441,463.275 295.327,485.603 240.578,485.603C185.83,485.603 152.389,420.98 152.389,364.08C152.389,307.18 187.772,288.586 242.52,288.586Z"/>
						<path class="tentacle__sucker" transform="matrix(0.152812,0.078001,-0.0450094,0.0881779,3241.36,1832.48)" d="M242.52,288.586C297.269,288.586 329.441,349.475 329.441,406.375C329.441,463.275 295.327,485.603 240.578,485.603C185.83,485.603 152.389,420.98 152.389,364.08C152.389,307.18 187.772,288.586 242.52,288.586Z"/>
						<path class="tentacle__sucker" transform="matrix(0.168224,0.0337108,-0.0139912,0.0698187,3178.89,1831.42)" d="M242.52,288.586C297.269,288.586 329.441,349.475 329.441,406.375C329.441,463.275 295.327,485.603 240.578,485.603C185.83,485.603 152.389,420.98 152.389,364.08C152.389,307.18 187.772,288.586 242.52,288.586Z"/>
						<path class="tentacle__sucker" transform="matrix(0.171043,-0.0134128,0.00450601,0.0574616,3119.81,1839.47)" d="M242.52,288.586C297.269,288.586 329.441,349.475 329.441,406.375C329.441,463.275 295.327,485.603 240.578,485.603C185.83,485.603 152.389,420.98 152.389,364.08C152.389,307.18 187.772,288.586 242.52,288.586Z"/>
						<path class="tentacle__sucker" transform="matrix(0.168028,-0.0211732,0.0111469,0.0462332,3066.44,1851.46)" d="M242.52,288.586C297.269,288.586 329.441,349.475 329.441,406.375C329.441,463.275 295.327,485.603 240.578,485.603C185.83,485.603 152.389,420.98 152.389,364.08C152.389,307.18 187.772,288.586 242.52,288.586Z"/>
						<path class="tentacle__sucker" transform="matrix(0.171529,-0.0396535,0.0182475,0.0315299,3014.05,1871.48)" d="M242.52,288.586C297.269,288.586 329.441,349.475 329.441,406.375C329.441,463.275 295.327,485.603 240.578,485.603C185.83,485.603 152.389,420.98 152.389,364.08C152.389,307.18 187.772,288.586 242.52,288.586Z"/>
					</g>
				</g>
			</g>

			<g id="Layer4">
				<path class="tentacle__skin" d="M608.956,2066.79L619.351,2024.16L641.359,1972.21L672.179,1922.35L724.158,1871.13L777.95,1837.94L867.29,1821.23L958.924,1839.99L1043.42,1867.5L1093.95,1898.11L1134.83,1922.22L1189.21,1949.69L1232.86,1951.41L1283.88,1943.05L1310.82,1920.04L1351.44,1873.77L1394.68,1774.43L1401.76,1684.9L1377.2,1623.68L1305.04,1596.87L1246.27,1611.4L1213.04,1646.76L1191.14,1682.36L1187.65,1732.36L1220.4,1776.42L1176.27,1757.56L1164.43,1702.58L1171.45,1641.05L1220.88,1570.12L1276.26,1542.51L1370.07,1536.56L1433.38,1582.43L1477.39,1675.99L1479.71,1786.29L1455.89,1877.73L1401.13,1980.63L1326.64,2037L1261.45,2061.84L1165.62,2063.03L1057.04,2041.3L968.607,2008.77L900.033,2001.51L841.656,2029.38L814.577,2053.85L795.231,2074.06L608.956,2066.79Z"/>
				<path class="tentacle__underside" d="M608.956,2066.79L619.351,2024.16L641.359,1972.21L672.179,1922.35L724.158,1871.13L777.95,1837.94L867.29,1821.23L958.924,1839.99L1043.42,1867.5L1093.95,1898.11L1134.83,1922.22L1189.21,1949.69L1232.86,1951.41L1280.9,1943.77L1239.71,1972.83L1190.54,1988.41L1138.14,1985.14L1070.04,1957.98L998.65,1932.58L922.998,1915.8L855.73,1920.43L793.893,1957.35L740.761,2000.2L720.986,2071.14L608.956,2066.79Z"/>
				<g class="tentacle__suckers" id="SUCKERS1" transform="matrix(0.918756,0,0,0.918756,53.6501,165.043)">
					<path class="tentacle__sucker" transform="matrix(0.133624,0.405696,-0.331059,0.109041,776.4,1872.72)" d="M242.52,288.586C297.269,288.586 329.441,349.475 329.441,406.375C329.441,463.275 295.327,485.603 240.578,485.603C185.83,485.603 152.389,420.98 152.389,364.08C152.389,307.18 187.772,288.586 242.52,288.586Z"/>
					<path class="tentacle__sucker" transform="matrix(-0.0567109,0.367385,-0.337764,-0.0521386,900.823,1843.69)" d="M242.52,288.586C297.269,288.586 329.441,349.475 329.441,406.375C329.441,463.275 295.327,485.603 240.578,485.603C185.83,485.603 152.389,420.98 152.389,364.08C152.389,307.18 187.772,288.586 242.52,288.586Z"/>
					<path class="tentacle__sucker" transform="matrix(-0.207545,0.259623,-0.27447,-0.179027,1022.64,1872.5)" d="M242.52,288.586C297.269,288.586 329.441,349.475 329.441,406.375C329.441,463.275 295.327,485.603 240.578,485.603C185.83,485.603 152.389,420.98 152.389,364.08C152.389,307.18 187.772,288.586 242.52,288.586Z"/>
					<path class="tentacle__sucker" transform="matrix(-0.23003,0.215803,-0.245923,-0.171476,1139.11,1882.7)" d="M242.52,288.586C297.269,288.586 329.441,349.475 329.441,406.375C329.441,463.275 295.327,485.603 240.578,485.603C185.83,485.603 152.389,420.98 152.389,364.08C152.389,307.18 187.772,288.586 242.52,288.586Z"/>
					<path class="tentacle__sucker" transform="matrix(-0.243106,0.0577207,-0.107526,-0.207063,1184.4,1965.31)" d="M242.52,288.586C297.269,288.586 329.441,349.475 329.441,406.375C329.441,463.275 295.327,485.603 240.578,485.603C185.83,485.603 152.389,420.98 152.389,364.08C152.389,307.18 187.772,288.586 242.52,288.586Z"/>
					<path class="tentacle__sucker" transform="matrix(-0.203188,0.14542,-0.177883,-0.150979,1272.84,1959.7)" d="M242.52,288.586C297.269,288.586 329.441,349.475 329.441,406.375C329.441,463.275 295.327,485.603 240.578,485.603C185.83,485.603 152.389,420.98 152.389,364.08C152.389,307.18 187.772,288.586 242.52,288.586Z"/>
					<path class="tentacle__sucker" transform="matrix(-0.145166,0.129941,-0.162256,-0.10978,1324.37,1973.86)" d="M242.52,288.586C297.269,288.586 329.441,349.475 329.441,406.375C329.441,463.275 295.327,485.603 240.578,485.603C185.83,485.603 152.389,420.98 152.389,364.08C152.389,307.18 187.772,288.586 242.52,288.586Z"/>
				</g>
			</g>
		</g>
	</g>
</svg>
