<svg viewBox="0 0 1920 1080" xmlns="http://www.w3.org/2000/svg" class="mountains">
	<defs>
		<radialGradient id="glow" cx=".5" cy="1" gradientTransform="matrix(-1, 0, 0, 1.750523, 1, -0.750523)">
			<stop offset="0" stop-color="green"/>
			<stop offset="1" stop-color="transparent"/>
		</radialGradient>
	</defs>
	<style type="text/css">
		.st0{fill:#FEE728;stroke:#6ACCE6;stroke-miterlimit:10;}
		.st1{fill:#E2E2E0;}
		.st2{fill:#C9C9C9;}
		.st3{fill:#FFFFFF;}
		.st5{display:inline;}
		.st6{fill:#121212;}
		.st7{fill:#1A2024;}
		.st8{fill:#ACACAC;}
		.st9{opacity:0.38;fill:#121212;}
		.tentacle{fill:#08020b;}
	</style>
	<g transform="matrix(1, 0, 0, 1, 493.603851, 277.095001)">
		<rect x="-1426.396" y="-277.095" height="1080" width="1920" fill="url(#glow)" transform="matrix(-1, 0, 0, 1, 0, 0)"/>
		<g id="THE_MOON" transform="matrix(1.60512, 0, 0, 1.60512, -58.610634, -336.374817)" style="">
			<circle class="st1" cx="481.4" cy="120.9" r="68.3"/>
			<g>
				<path class="st2" d="M466.9,67.4c-3.9-2.8-9-2.7-12.2-1c-1.7,0.9-1.8,1.6-5.1,3.6c-2.7,1.6-3.6,1.7-5.3,2.8 c-2.6,1.7-4,3.6-5.6,5.8c-3.1,4.4-7.9,11.1-5.8,18.3c0.6,2.1,1,3.6,2.3,4.1c4.4,1.4,10.4-14,21.3-14.8c1.2-0.1,1.5,0.1,3.1-0.1 c1.5-0.2,10.4-1.3,12.2-7.4C473,74.4,470.2,69.8,466.9,67.4z"/>
				<path class="st2" d="M508.5,72.5c-3.9-2-4.4-2.4-5.8-2.8c-1.1-0.3-1.8-0.5-2.8-0.5c-3.8,0-8.4,3.5-8.4,7.4c0,2.1,1.4,3.8,1.8,4.3 c0.7,0.9,1.2,1.1,3.8,3c3,2.2,2.6,2.1,3.3,2.5c0.9,0.5,3.8,2.1,7.1,1c0.7-0.2,2.9-1.1,4.1-3.3c0.6-1.2,0.6-2.6,0.5-5.3 c-0.1-3.6-0.7-4.5-1-4.8C510.7,73.6,510.5,73.5,508.5,72.5z"/>
				<path class="st2" d="M528.6,82.9c-3-0.6-4.5-0.9-5.6-0.3c-1.1,0.6-0.7,1.3-2.5,3.6c-1.5,1.9-1.9,1.7-2.5,2.8 c-1.3,2.2-0.7,5.2,0.3,7.1c1.5,3,4.3,4,5.1,4.3c1.1,0.4,1.8,0.7,2.8,0.5c2.1-0.4,2.1-2.6,4.6-4.1c2.4-1.4,3.7-0.2,5.1-1.5 c2-2,0.4-6.4,0.3-6.9c-0.4-1-1.4-3.3-3.8-4.6C531.3,83.4,530.4,83.2,528.6,82.9z"/>
				<path class="st2" d="M486.4,88.5c-1.9-0.4-2.6-1.4-3.8-1c-1.6,0.4-1.2,2.2-2.8,3c-2.5,1.4-5.3-1.9-7.9-0.5 c-0.8,0.4-0.4,0.7-2.3,2.8c-2,2.2-2.5,2-3,3c-0.9,1.8-0.2,3.8,1,7.4c0.9,2.5,1.3,3.7,2.3,4.1c1.3,0.5,2.1-0.8,5.3-1.8 c1-0.3,2.4-0.4,5.3-0.8c5.1-0.6,5.6-0.3,5.8,0c1.1,1.1-0.4,2.9,0.5,6.3c0.5,1.9,1.7,3.9,2.5,3.8c0.6-0.1,0.5-1.1,1.5-3 c0.6-1.2,1.3-2.6,2.5-3.3c1.6-0.9,3.4-0.4,5.6,0.3c3.7,1.1,6.9,3.3,6.9,3.3c0,0,3.1,1.2,5.1,0.3c0.9-0.4,1.4-1.3,2.3-3 c0.7-1.5,1.1-2.7,1.3-3.4c0.1-0.3,0.3-1.1,0.5-2.2c0.3-2.2,0.2-4.1,0-5.6c-0.4-4.1-0.8-7.7-3-8.9c-1.2-0.6-2-0.1-4.3,0.3 c-7.7,1.1-9.9-3-16.2-1.5C489.9,88.3,488.5,88.9,486.4,88.5z"/>
				<path class="st2" d="M519.4,105.7c-1.8,1.8-2.1,4.9-1,6.9c0.4,0.7,0.5,0.5,1.8,2c1.6,2,1.6,2.6,2.5,3.6c0.2,0.2,1.9,1.8,4.3,1.8 c2.3,0,3.9-1.6,5.8-3.6c1.4-1.4,2.1-2.1,2.3-3.3c0.2-1.7-0.8-3.1-2-4.8c-1-1.4-1.6-2.3-2.8-3c-3.1-2.1-6.7-1.2-7.6-1 C521.5,104.5,520.4,104.7,519.4,105.7z"/>
				<path class="st2" d="M423,99.1c0.3,0,0.4,3.7-1,4.6c-0.1,0.1-0.6,0.3-1.1,0.5c-0.7,0.3-1.2,0.4-1.4,0.5c-1.8,0.5-2.7,0.8-3.1,1.2 c-0.6,0.7-0.5,1.6-0.3,3.6c0.2,1.8,0.3,3.6,0.5,5.3c0.4,3.5-0.4,4-0.5,8.4c0,0.8,0,4.1,0.8,7.9c0.6,2.8,1,3.1,3.3,9.1 c3,8.1,2.6,8.4,4.1,10.1c1.9,2.2,3.1,2.3,6.1,5.8c0.5,0.6,1.2,1.6,2.8,3.6c2.8,3.6,2.8,3.8,3.6,4.6c0.5,0.6,1.5,1.7,5.6,4.6 c1.9,1.4,4.3,3.1,8.1,5.3c7.9,4.7,9,4.1,9.4,3.8c1.4-1-0.2-3.8,1.5-5.3c1.3-1.2,3.8-0.9,5.3-0.3c2,0.9,1.7,2.1,4.1,3.3 c1.3,0.6,2.4,0.8,4.1,1c1.7,0.2,2.5,0.3,3.6,0c0.3-0.1,1.9-0.7,2.8-2.3c1.1-2.1-0.3-3.5,0.8-5.1c1.1-1.6,3.7-1.7,4.3-1.8 c2.2-0.1,3.2,0.9,4.1,0.3c1.2-0.9,0.6-3.4,0.5-3.8c-0.1-0.6-0.7-2.8-2.8-4.3c-3.4-2.4-6.7,0-8.4-2c-0.5-0.5-0.4-2.5-0.3-6.3 c0.1-3.4,0.2-5,0.3-6.1c0.2-2.4,0.3-2.9,0-3.8c-0.8-2.1-3.4-3.7-4.8-3c-1.2,0.6-1.2,2.8-1.3,5.6c0,0.8,0.1,1.8,0.3,3.8 c0.2,2.2,0.3,3.2,0.5,5.3c0.2,2.5,0.3,3.7,0,3.8c-0.7,0.3-3-2.8-4.1-6.3c-0.6-2-0.7-3.6-0.5-7.9c0.4-10.2,0.9-11.2-0.3-12.9 c-2.2-3.1-7-3.7-8.1-3.8c-1.2-0.1-2.6-0.1-5.3,0c-4,0.1-5.6,0.3-5.6,0.3c-3,0.2-3.4,0.4-3.8,0c-1.1-1.2,0.7-5.1,2.5-7.6 c1.8-2.4,2.7-2.4,4.8-5.3c1.6-2.2,2.4-3.3,2.5-5.1c0.3-3.6-2.8-6.1-3-6.3c-1.9-1.6-5.3-2.8-7.1-1.5c-0.7,0.5-0.7,1-1.8,5.1 c-1.2,4.6-1.6,5.5-2,6.3c-0.8,1.6-1.5,2.8-2.8,3.8c-0.9,0.7-1.9,1-8.4,1.3c-3.5,0.2-7.4,0.3-7.4,0.3l0,0c0,0-3.9-2.1-4.3-4.8 c-0.2-1.1,0.3-1.9,1-3.3C423.3,103.6,422.7,99.1,423,99.1z"/>
			</g>
			<g>
				<path class="st3" d="M454,73c-0.4,0.4-0.8,0.9-1.8,1.5c-1.2,0.8-2,0.9-3.6,1.5c-0.5,0.2-2.1,0.8-3.6,1.8 c-1.8,1.1-3.6,2.3-3.6,3.8c0,1.1,1.1,2,2.5,3c1.4,1.1,3.1,2.3,4.3,1.8c1.2-0.5,0.7-2,2.3-3.8c1-1.1,1.5-0.9,3.6-2.3 c2.4-1.6,2.3-2.3,4.6-4.1c2.9-2.2,4.6-2.1,4.6-2.8C463.3,72.2,456.8,70.5,454,73z"/>
				<path class="st3" d="M490.8,97.6c-2,0.3-3.7-0.6-4.1-0.8c-2.4-1.3-2.1-3.3-4.1-4.1c-0.5-0.2-1-0.3-5.6,1 c-4.8,1.4-5.4,1.8-5.8,2.5c-0.7,1.2-0.9,3.1,0,4.1c0.8,0.9,2,0.4,6.6,0.3c1.7-0.1,3.5-0.1,5.6,0c2.4,0.2,3.6,0.5,6.1,1 c5.5,1.1,5.3,0.4,9.1,1.3c6.4,1.4,8.1,3.5,10.7,2.3c1.9-0.9,3.2-3,2.8-4.3c-0.5-1.5-3.2-0.6-6.6-2.8c-2.4-1.5-2.4-2.8-4.6-3.6 c-2.1-0.7-4.1-0.1-4.6,0C493.5,95.4,493.3,97.2,490.8,97.6z"/>
				<path class="st3" d="M526.3,87.2c-1.4,0.1-1.4,2.3-3.6,3c-1.5,0.5-2.5-0.2-2.8,0.3c-0.4,0.7,1.3,2.8,3.3,4.1c1,0.6,2.9,1.7,4.3,1 c1.9-0.9,2.5-4.6,2.5-4.6l0,0C530.1,91,528.1,87.1,526.3,87.2z"/>
				<path class="st3" d="M520.4,111c0-0.1,0.1-0.3,1.2-0.7c1.6-0.6,2.4-1,3.7-1.1c1.4-0.1,3.4-0.3,4.3,1c0.6,0.9,0.7,2.3,0,3 c-0.7,0.7-1.7,0.4-3.8,0C523.9,112.9,520.3,111.9,520.4,111z"/>
				<path class="st3" d="M501.4,75.3c-0.4-0.2-2.9-1.2-4.6,0.3c-1.1,1-1.4,2.9-0.8,4.1c0.4,0.8,1.5,1.3,3.8,2.3 c0.8,0.4,0.8,0.3,1.8,0.8c2.9,1.2,3.2,1.7,3.5,1.5C506.3,83.5,505.5,77,501.4,75.3z"/>
				<path class="st3" d="M448.1,108.8c0.2,0.1-1.5,4.4-5.1,7.9c-2.4,2.3-5.1,3.8-5.1,3.8c-2.3,1.3-3.1,1.3-4.3,2.5 c-0.3,0.3-2.1,2.2-2.3,5.1c-0.1,1.6,0.5,2.6,2.5,6.3c4.1,7.4,4.2,7.7,5.1,8.9c1.2,1.6,2.6,3.1,5.1,5.3c8,7.1,12,10.7,15,9.9 c6.3-1.7,9.4-21.4,2.3-26.6c-3.7-2.7-11.2-2.2-12.9-2c-4.6,0.4-7.1,1.6-8.4,0.3c-1.4-1.5-0.2-4.9,1.3-8.6 C444,114.5,447.9,108.6,448.1,108.8z"/>
				<path class="st3" d="M471.2,158.2c1.3-0.2,1.8,1.4,5.3,4.3c1.9,1.5,2.7,1.9,2.8,2.8c0,1-0.9,1.8-2.8,3.3c-2,1.6-3,2.4-4.1,2.5 c-2.9,0.4-6.4-2.2-6.6-4.8c0-0.7,0.9-2.2,2.8-5.1C470.5,158.6,470.8,158.3,471.2,158.2z"/>
				<path class="st3" d="M419.2,126c-0.4,0.1,0.7,6.1,3,12.4c0.9,2.3,2.1,5.5,4.6,9.4c1.5,2.4,3.6,5.7,7.4,8.9c3.5,3,4.8,2.8,7.6,5.8 c3.1,3.4,4.1,6.4,4.3,6.3c0.3-0.1-1.9-7.4-7.1-14.7c-1.1-1.5-2.8-3.5-6.3-7.6c-5.7-6.6-6.2-6.7-7.9-9.1 C420.5,131.2,419.6,125.9,419.2,126z"/>
				<path class="st3" d="M466.4,114.6c-0.5,0.7,0.1,1.4,0,4.6c-0.1,2.1-0.3,2.5,0,2.8c1.3,1.1,8.9-3.8,8.1-6.3 C473.9,113.5,467.7,112.7,466.4,114.6z"/>
			</g>
			<g>
				<path class="st3" d="M524,136.7c-1.3,0.6-1,1.7-2.8,3c-2,1.5-3.4,0.8-4.6,2.3c-0.8,1.1-0.2,1.6-1,3c-1,1.7-2.1,1.4-4.1,3.6 c-0.8,0.9-1.5,1.6-1.8,2.8c-0.5,1.8,0.4,2.5-0.3,3.3c-0.6,0.8-1.8,0.3-5.1,0.5c-1.9,0.1-2.8,0.2-3.8,0.8c-1.6,0.9-2.4,2.3-2.8,3 c-0.3,0.5-0.6,1.5-1.3,3.6c-0.7,2.2-0.7,2.4-1,3c-0.3,0.7-1,2.4-2,3.3c-2.7,2.5-7.4-0.7-9.1,1.3c-1.4,1.7,1.1,4.7-0.5,6.6 c-0.9,1.1-1.9,0.4-5.1,1.5c-3.6,1.2-3.8,2.5-5.3,2.3c-2.5-0.3-2.4-3.6-6.1-5.3c-0.6-0.3-3.3-1.5-5.1-0.3c-1,0.7-1.7,2.2-1.3,3 c0.5,0.9,1.7,0.3,3.8,1c2.5,0.9,2.7,2.4,5.6,3.8c0.4,0.2,1.4,0.6,3.6,1c11,2,19.8,0,19.8,0c5.7-1.3,13-2.9,13.7-6.9 c0.5-2.8-2.7-4.1-3-9.1c-0.1-1.1-0.3-4.8,2-7.4c3.4-3.8,10.6-3.4,13.7-0.3c2.2,2.3,2.2,5.9,2.5,5.8c0.5-0.1-2.4-9.7,1.3-12.7 c2.2-1.8,4.7,0.3,6.9-1.5c3-2.5,2.6-10-1.3-13.4C528.3,137.3,525.8,135.9,524,136.7z"/>
				<path class="st3" d="M502.2,128.8c-1.5-3.2-9.4-2.6-10.1-0.5c-0.8,2,4.4,7.6,7.9,6.1C501.8,133.6,503,130.6,502.2,128.8z"/>
				<path class="st3" d="M514.4,122.5c-1,0.6-0.6,3.3,0.3,5.1c1.6,3.4,5.7,5.5,6.9,4.6c1.1-0.9-0.4-4.7-2.5-7.1 C517.7,123.7,515.4,121.8,514.4,122.5z"/>
				<path class="st3" d="M450.9,154.9c-0.2,0.4,4.9,1.6,7.6,5.8c2.2,3.5,1.5,7,2.5,7.1c1,0.1,2.4-3.4,3-6.1c1.7-6.8,0.3-13-0.3-12.9 c-0.5,0,0.7,5.3-2,7.4C458.4,158.7,451.1,154.5,450.9,154.9z"/>
				<path class="st3" d="M478.1,65.1c0.1-1.9-2.9-3.3-4.3-3.8c-2.1-0.7-3.9-0.3-5.3,0c-3.3,0.7-6.3,2.6-6.1,3.3 c0.2,0.6,2.8-0.5,5.1,1c1.4,0.9,1.1,1.8,2.5,2.5c2.2,1.2,4.8,0.1,5.1,0C475.5,67.9,478,66.9,478.1,65.1z"/>
			</g>
		</g>
		<g id="tentacles-left" transform="matrix(-0.657784, 0.753207, -0.753207, -0.657784, 329.62946, 330.822535)">
			<path class="tentacle" d="M -99.837 -117.379 C -122.025 -115.277 -144.469 -109.004 -158.159 -101.072 C -176.062 -90.697 -198.383 -64.263 -211.072 -38.39 C -225.127 -9.745 -230.085 8.508 -231.947 38.409 C -235.176 90.267 -217.839 125.648 -180.06 144.242 C -165.711 151.304 -160.402 152.578 -145.308 152.515 C -123.299 152.429 -108.918 146.385 -93.583 130.785 C -63.028 99.703 -60.351 52.798 -88.298 38.348 C -92.676 36.082 -96.818 34.794 -97.502 35.484 C -98.193 36.166 -96.384 37.999 -93.489 39.55 C -86.171 43.461 -80.552 55.383 -80.615 66.83 C -80.785 96.313 -115.647 127.386 -142.824 122.288 C -161.923 118.702 -179.928 98.205 -183.482 76.003 C -185.422 63.857 -181.302 40.389 -173.984 21.927 C -157.569 -19.461 -116.469 -59.103 -80.095 -68.609 C -65.411 -72.452 -60.747 -72.63 -45.295 -69.984 C -35.477 -68.299 -17.418 -62.774 -5.165 -57.698 C 28.967 -43.566 40.748 -40.586 62.788 -40.478 C 79.605 -40.4 85.613 -41.556 97.805 -47.206 C 105.899 -50.955 115.948 -56.472 120.148 -59.467 C 124.346 -62.448 128.529 -64.147 129.445 -63.232 C 135.537 -57.139 104.059 -38.335 80.257 -33.842 C 57.728 -29.589 37.962 -33.579 -5.583 -51.133 C -38.488 -64.404 -42.796 -65.514 -61.531 -65.559 C -78.201 -65.598 -84.332 -64.426 -95.787 -59.001 C -103.462 -55.37 -112.441 -50.171 -115.747 -47.446 L -121.754 -42.496 L -105.015 -43.558 C -79.785 -45.164 -73.289 -42.984 -42.958 -22.675 C -2.301 4.551 29.246 15.298 67.864 15.058 C 90.587 14.918 112.76 9.184 126.147 -0.013 C 132.192 -4.157 135.094 -4.391 135.094 -0.711 C 135.094 10.681 160.24 58.471 177.251 79.433 C 181.977 85.246 185.842 91.198 185.842 92.657 C 185.842 95.893 177.436 98.199 128.754 108.257 C 55.3 123.443 26.345 138.631 7.175 172.01 C 2.806 179.631 3.769 179.127 16.689 167.035 C 41.346 143.948 67.306 135.907 132.557 131.134 C 152.797 129.652 179.354 126.54 191.593 124.211 L 213.82 119.99 L 221.394 127.246 C 225.561 131.236 228.945 135.721 228.914 137.203 C 228.883 138.686 223.117 146.175 216.094 153.85 C 199.106 172.429 179.51 199.909 170.212 218.188 C 160.736 236.836 152.859 267.18 152.859 285.053 C 152.859 303.975 159.703 332.456 168.404 349.779 C 172.415 357.756 175.691 364.896 175.691 365.633 C 175.691 369.343 154.845 366.114 134.202 359.207 C 85.582 342.949 39.708 308.925 8.922 266.295 C -1.005 252.56 -0.609 256.316 10.784 283.827 C 30.807 332.192 75.973 381.139 126.031 408.69 C 145.517 419.422 182.233 430.715 202.683 432.258 C 215.124 433.197 222.426 435.006 224.848 437.738 C 232.562 446.422 246.562 475.556 250.598 491.293 C 260.275 529.08 243.893 565.587 211.879 577.562 C 189.102 586.082 154.698 582.878 134.528 570.352 C 124.183 563.926 109.128 548.297 103.578 538.23 C 99.946 531.619 99.613 531.448 101.079 536.957 C 107.047 559.401 127.97 580.705 154.713 591.562 C 187.41 604.833 226.47 599.882 250.723 579.378 C 262.076 569.786 272.11 554.225 277.519 537.843 C 286.25 511.371 282.501 468.439 269.169 442.301 C 266.375 436.822 265.024 431.545 266.189 430.574 C 267.346 429.605 275.145 426.764 283.518 424.265 C 311.612 415.868 337.541 400.401 358.239 379.712 C 380.575 357.376 391.432 340.054 402.382 309.283 C 409.981 287.934 410.298 285.45 410.306 246.459 C 410.313 215.121 409.274 202.099 405.75 189.371 C 401.366 173.554 381.063 129.637 367.048 105.649 L 360.381 94.233 L 373.07 73.318 C 395.979 35.584 411.649 -23.512 411.649 -72.179 C 411.649 -95.097 410.988 -99.862 407.838 -99.862 C 405.75 -99.862 404.034 -97.666 404.034 -94.98 C 404.034 -92.303 401.078 -86.592 397.469 -82.292 C 385.595 -68.191 364.331 -72.917 358.363 -90.991 C 356.098 -97.874 354.065 -99.862 349.291 -99.862 C 343.207 -99.862 343.145 -99.606 343.129 -75.128 C 343.114 -61.524 341.935 -42.968 340.506 -33.896 C 337.323 -13.703 324.409 28.981 319.435 35.78 C 316.253 40.117 315.236 40.304 311.503 37.2 C 306.691 33.21 306.808 32.286 316.098 0.981 C 323.688 -24.598 329.314 -71.597 326.799 -88.376 L 325.077 -99.862 L 302.944 -99.862 L 280.819 -99.862 L 280.888 -70.053 C 280.958 -38.731 278.358 -16.132 274.686 -16.132 C 273.492 -16.132 270.565 -21.999 268.183 -29.162 C 262.704 -45.646 264.186 -71.132 271.583 -87.848 L 276.89 -99.862 L 190.367 -99.862 L 103.85 -99.862 L 91.526 -87.213 C 77.277 -72.583 71.93 -70.721 50.029 -72.769 C 33.306 -74.329 16.914 -81.065 -15.866 -99.862 C -44.193 -116.114 -65.746 -120.607 -99.837 -117.379 L -99.837 -117.379 Z M -65.644 -56.976 C -60.413 -53.663 -64.636 -49.115 -72.947 -49.115 C -80.615 -49.115 -84.487 -52.437 -81.832 -56.728 C -79.909 -59.84 -70.402 -59.987 -65.644 -56.976 L -65.644 -56.976 Z M -22.626 -45.064 C -15.098 -39.794 -16.122 -30.411 -24.349 -29.248 C -37.061 -27.447 -51.231 -38.616 -46.318 -46.562 C -43.874 -50.52 -29.075 -49.588 -22.626 -45.064 Z M 130.027 -24.055 C 130.027 -15.504 129.018 -13.796 122.391 -11.056 C 106.202 -4.351 95.151 -8.262 98.022 -19.695 C 99.97 -27.439 110.439 -33.656 121.777 -33.795 C 129.677 -33.896 130.027 -33.485 130.027 -24.055 Z M 381.008 -28.922 C 392.775 -22.628 390.74 -2.962 377.672 3.269 C 370.354 6.762 368.235 6.831 361.948 3.82 C 348.228 -2.744 347.211 -22.938 360.25 -29.768 C 367.598 -33.616 372.627 -33.407 381.008 -28.922 L 381.008 -28.922 Z M 24.529 -23.451 C 37.9 -12.935 28.036 -2.38 9.239 -7.099 C 0.656 -9.248 -6.042 -20.043 -1.897 -25.033 C 2.659 -30.521 16.604 -29.69 24.529 -23.451 L 24.529 -23.451 Z M 81.879 -13.54 C 88.608 -6.804 85.115 0.142 72.954 4.155 C 52.017 11.062 32.444 -8.155 52.265 -16.156 C 62.369 -20.237 76.424 -18.989 81.879 -13.54 Z M 353.11 43.826 C 359.372 51.79 359.807 59.34 354.421 67.023 C 348.507 75.467 342.236 73.9 332.038 61.451 C 321.515 48.616 321.366 48.049 327.048 41.786 C 333.466 34.684 346.738 35.725 353.11 43.826 Z M 247.26 153.098 C 258.094 163.675 258.614 165.492 252.685 172.049 C 243.528 182.169 223.893 174.089 223.893 160.19 C 223.893 154.362 231.616 143.707 235.844 143.707 C 236.83 143.707 241.967 147.936 247.26 153.098 L 247.26 153.098 Z M 283.371 195.664 C 300.661 220.764 306.156 237.86 306.265 266.801 C 306.35 290.494 305.792 293.359 298.015 309.166 C 287.91 329.709 273.204 343.345 247.439 356.08 C 225.142 367.1 225.445 367.27 213.261 337.796 C 205.764 319.659 204.88 314.941 204.911 293.397 C 204.949 267.413 208.286 257.938 227.246 229.968 C 235.247 218.164 269.13 181.765 272.11 181.765 C 273.041 181.765 278.11 188.012 283.371 195.664 Z M 214.184 193.569 C 216.737 195.882 218.825 200.445 218.825 203.721 C 218.825 211 210.49 219.817 203.598 219.817 C 200.812 219.817 196.242 217.535 193.456 214.749 C 190.662 211.955 188.38 207.391 188.38 204.597 C 188.38 197.884 197.134 189.371 204.034 189.371 C 207.068 189.371 211.63 191.265 214.184 193.569 Z M 191.082 240.204 C 196.73 243.223 197.701 254.779 192.819 260.839 C 187.512 267.428 181.449 268.018 174.589 262.625 C 159.572 250.813 174.077 231.102 191.082 240.204 Z M 184.305 294.033 C 188.108 300.103 183.466 307.118 174.969 308.134 C 166.533 309.151 161.45 301.048 165.625 293.242 C 169.025 286.901 180.13 287.375 184.305 294.033 Z M 188.559 325.325 C 193.068 330.764 188.52 337.796 180.486 337.796 C 176.024 337.796 174.2 336.197 173.564 331.742 C 172.215 322.157 182.325 317.82 188.559 325.325 L 188.559 325.325 Z M 194.721 356.825 C 194.721 360.791 193.084 363.414 190.274 363.957 C 185.252 364.92 181.984 358.842 184.29 352.835 C 186.712 346.526 194.721 349.592 194.721 356.825 L 194.721 356.825 Z M 250.117 444.171 C 251.777 448.486 245.537 454.368 241.766 452.033 C 240.315 451.14 239.12 448.183 239.12 445.475 C 239.12 439.663 247.982 438.606 250.117 444.171 Z M 258.785 466.553 C 258.203 468.299 256.201 469.727 254.346 469.727 C 252.484 469.727 250.489 468.299 249.907 466.553 C 249.278 464.667 251.071 463.387 254.346 463.387 C 257.614 463.387 259.414 464.667 258.785 466.553 Z M 265.77 483.704 C 266.639 485.109 265.521 486.956 263.279 487.817 C 258.42 489.68 255.712 487.631 258.048 483.851 C 260.151 480.445 263.721 480.375 265.77 483.704 L 265.77 483.704 Z M 264.869 502.709 C 264.869 504.036 263.643 505.527 262.145 506.032 C 260.647 506.528 259.414 505.038 259.414 502.709 C 259.414 500.382 260.647 498.892 262.145 499.396 C 263.643 499.885 264.869 501.383 264.869 502.709 Z M 264.489 520.683 C 264.489 522.895 263.139 524.246 261.478 523.695 C 256.775 522.127 255.999 516.664 260.477 516.664 C 262.688 516.664 264.489 518.472 264.489 520.683 L 264.489 520.683 Z M 259.414 535.545 C 259.414 536.159 258.28 537.369 256.877 538.23 C 255.487 539.092 254.346 538.588 254.346 537.112 C 254.346 535.63 255.487 534.428 256.877 534.428 C 258.28 534.428 259.414 534.932 259.414 535.545 Z" />
		</g>
		<g id="tentacles-right" transform="matrix(0.681449, 0, 0, 0.681449, 705.195984, 101.362968)">
			<g transform="matrix(-0.609699, -0.380594, -0.380594, 0.609699, 566.164551, 58.871475)">
				<path id="path977" class="tentacle" d="M-76.7,1049.8c7.4-62.8,47.6-114.4,108.8-139.7c13.6-5.6,26.3-11.5,28.2-13.2 c5.3-4.5-19.7-56.7-65-135.5c-87.5-152.5-124.2-246.4-134.1-343.1c-7-68.5,7.8-142.8,38.7-194.6c25.7-43,87-100.2,130.3-121.7 c105.5-52.4,225.6-32.5,308.1,51c43.5,44,67.9,102,74.8,177.4c7.6,83.1-26,148.7-93,181.4c-63.8,31.2-131.2,25.3-155.6-13.5 c-13.6-21.6-4.5-60.3,21.5-92l9.3-11.4l-10.2,22.6c-5.6,12.4-11,30.5-11.9,40.2c-1.5,15.5-0.3,19.2,9.8,30.5 c11.2,12.5,12.4,12.9,39.3,12.6c23.1-0.2,32-2.3,52.9-12.3c29.4-14.1,52.5-35.8,64.5-60.6c23.6-48.8-0.9-145.9-48.9-193.9 c-69.7-69.7-166.2-68-234.1,4c-26.6,28.2-35.7,43.4-45.1,75.1C-4.5,368,13.8,448,64.2,542.6c22.7,42.7,33.2,59.9,78.7,129.3 c21.9,33.4,46.1,72.2,53.9,86.3c7.8,14.1,15.6,25.6,17.3,25.6c1.8,0,7.9-7.9,13.6-17.6c13.8-23.6,62.7-74.3,91.4-94.8 c55.9-39.9,91.4-46.2,247.9-43.7c52.5,0.8,67.2-0.2,91.6-6.6c32-8.3,60.8-21.6,77.6-35.9c12.7-10.8,26.6-32.8,20.7-32.8 c-2.2,0-4,2.2-4,4.9c0,2.7-6.4,11.2-14.2,18.8c-35,34.1-111.3,52.5-189.5,45.7c-43.5-3.8-107.6-3.4-128.9,0.7 c-6.9,1.3-5.3,0,4.5-3.8c28.5-11,89.9-21.7,99.7-17.3c13.8,6.3,30.5,4.9,34.6-2.8c2.9-5.5,12.4-7.8,48.3-11.7 c24.6-2.7,53.6-8.3,64.6-12.4c28.3-10.6,55.5-36.5,70.5-67.1c11.7-23.9,12.4-27.6,12.4-67.1c0-39.3-0.7-43.2-12.1-66.4 c-21.9-44.5-62.7-76-105.5-81.4c-25.6-3.2-69.3,6.2-94,20.4c-40.1,23-70.9,65.4-70.9,97.8c0,28.8,23.1,64.8,48.3,75.3 c19.2,8,53.2,7.1,71.3-1.9c14.7-7.3,14.8-7.3,6.2-0.1c-20,16.7-67.2,20.3-94.2,7.3c-19.8-9.6-33.6-25.3-46-52.3 c-18.4-40-4.1-89.1,38-130.7c50.8-50.3,119-70.2,183.2-53.5c78.2,20.2,141.9,108.7,141.9,197.1c0,53-24.6,113.8-60.5,149.7 c-22.8,22.8-71.4,50.6-96.9,55.3c-17.6,3.3-16.5,8,3,13.2c27.2,7.3,64.2,30.4,90.5,56.5c28.3,28.1,49.3,65.4,58.3,103.5 c7.9,33.7,7.3,86.7-1.6,120.8c-6.2,23.9-25.2,71.7-28.5,71.7c-0.6,0-0.3-20.9,0.7-46.5c2-53.7-3.6-84.2-21.9-120.5 c-21.2-42-51.1-68.8-78.1-70c-10.7-0.4-19.7-3.5-25.2-8.4c-11.5-10.4-28.7-13.1-39.4-6.1c-4.9,3.2-14.8,5.2-23,4.5 c-21.4-1.7-37.4,3.4-41.9,13.3c-4.4,9.7-25.6,21.2-39.4,21.4c-12.3,0.2-22.2,8.5-22.2,18.8c0,10.1-23.8,34.2-33.8,34.2 c-11.4,0-20.8,14-20,29.6c0.9,16.4-11,38.5-22.4,41.5c-8.6,2.3-24.6,30.7-19.9,35.2c10.4,9.9,79.9,42.5,105.4,49.4 c50.9,13.9,92.9,3.2,108.6-27.6c17.4-34.1,1.7-73-36.4-90.6c-16.7-7.7-10.9-9.2,8.2-2.2c26.2,9.7,50.3,42.7,50.5,68.9 c0.2,32-17.5,59.3-48.3,74.4c-15.4,7.5-23.7,8.8-57.8,8.7c-43.1-0.1-60.3-4.6-117.2-30.5c-15.4-7-28.5-12.8-29.1-12.8 c-0.6,0-5.5,11.5-10.9,25.6c-14.1,36.5-13.1,35.7-37.5,34.3l-21.4-1.2l19.2-41.7c10.5-22.9,21.9-47.7,25.1-55 c55.9-124.8,100.5-182.9,166-216.3c41.5-21.1,70.9-25.9,110.7-18.1c40.7,8,67.2,21.4,98.3,49.4c27,24.3,23.6,16.7-4.7-10.6 c-30.2-29.2-84-50.7-126.7-50.9c-62.9-0.2-131,41.5-182.9,111.8c-20.4,27.7-70.2,123.8-105.5,203.7l-12.9,29.3l-126.5,0.1 l-126.5,0.1l8.2-12.3c15.6-23.3,23.3-44.9,25.5-70.7c1.2-14.8,0.6-26.8-1.4-28.1c-5.8-3.6-40.8,14.4-57.9,29.9 c-18.4,16.7-28.9,35.4-34.6,62.1c-2.3,10.5-5.7,19.1-7.6,19.1c-5.2,0-4.1-22.3,2.2-43.1c10.5-34.5,24.9-51.7,58.9-70.5 c25.8-14.2,21.8-15.1-6.2-1.4c-36.5,17.9-60.4,53-64.9,95l-2.1,19.9h-22.8h-22.8L-76.7,1049.8z M-45.9,1054.5 c6.9-2.6,8-16.9,1.9-23c-5.2-5.2-17.5-2.1-20.3,5.1c-2.4,6.2,3.8,20.2,9,20.2C-53.4,1056.8-49.2,1055.8-45.9,1054.5z M-34.2,999.9c0-10.8-12-15.4-15.6-6c-3.5,9,1.4,18.1,8.9,16.6C-36.7,1009.8-34.2,1005.8-34.2,999.9L-34.2,999.9z M-9.6,967.2 c0-7.1-10.8-11.1-16-5.8c-3,3-2.8,5.7,0.5,9.8C-19.6,977.6-9.6,975.1-9.6,967.2z M154.7,937.3c3.2-19.5-15.8-79.7-48.1-152.8 c-19.4-44-38.1-79.1-73-137.3c-59.5-99.4-85-188.9-80-280.6c4.9-88.1,40.6-149,105.6-180.2C90,171.7,89,169,57.2,180.9 c-32.8,12.3-71,50-89.4,88.5c-8.1,17-16.9,41.1-19.6,53.6c-6.4,29.6-6.3,106,0.1,142.2c10.1,57.1,42.5,139.3,75.3,191.2 c18.7,29.5,50.7,91.5,69.4,134.1c18.8,43,45.3,116.9,45.3,126.5c0,9.6,7.9,33.6,11,33.6C151.1,950.6,153.5,944.6,154.7,937.3 L154.7,937.3z M21.8,944.6c3.6-3.6-1.3-12.9-6.9-12.9c-6.4,0-10.5,6.4-7.4,11.4C10.1,947.2,18.3,948.1,21.8,944.6L21.8,944.6z M56.2,926.2c3.1-8-6.7-15-12-8.6c-3.1,3.7-3,6.2,0.3,9.5C50.3,933.1,53.7,932.8,56.2,926.2L56.2,926.2z M191.1,833.1 c4.7-10.4,7.5-20.6,6.1-22.8c-1.3-2.1-8.2-3.9-15.3-3.9c-14.2,0-20.8,7.7-20.8,24.2c0,8.2,11.7,21.3,19.1,21.3 C181.5,852,186.4,843.5,191.1,833.1L191.1,833.1z M158.9,750.1c10.6-20.7-10.7-41.9-29.6-29.5c-11.7,7.6-15.4,18.8-9.9,29.2 C128.4,766.5,150.4,766.7,158.9,750.1L158.9,750.1z M104.2,670c9.1-9.1,9.6-18.2,1.7-29.5c-11.8-16.9-39.6-7.5-39.6,13.4 C66.3,675.1,89.3,684.9,104.2,670L104.2,670z M625.7,603.6c0-6.1-2.9-7.8-14.7-8.8c-16.3-1.3-23.5,3.2-19.9,12.5 c1.8,4.6,6.4,5.9,18.5,5C622.8,611.4,625.7,609.8,625.7,603.6z M678.7,596.6c12.6-9.2-1.6-18-18.5-11.5c-3.3,1.3-6,5.5-6,9.5 C654.1,603.2,668.1,604.3,678.7,596.6z M63.5,586.1c6.3-8.5,6.7-11.3,2.7-19c-6.1-11.7-10.8-14.6-23.4-14.6 c-13.3-0.1-23.3,14.1-19.7,28C27.8,600,50.7,603.2,63.5,586.1z M728.3,567.2c3.8-6.2-4.2-12.1-12.8-9.4c-9.3,3-14,13.8-7.7,17.7 C712.8,578.6,724.1,574,728.3,567.2z M755.8,536.5c7.1-7.1,5.5-18.2-2.6-18.2c-7.1,0-11.8,6.9-11.8,17.4 C741.4,542.2,749.6,542.7,755.8,536.5L755.8,536.5z M24.7,518.9c11.5-9.3,7.9-26-6.5-29.6c-19.4-4.9-31.4,14.5-18,29.3 C8.4,527.7,13.8,527.7,24.7,518.9L24.7,518.9z M773.1,493.6c2.9-7.6-1.2-17.7-6.6-16c-6.7,2.2-7.7,21.7-1.1,21.7 C768.4,499.3,771.9,496.7,773.1,493.6L773.1,493.6z M7.5,448.5c0-19.7-24.1-23.7-27.8-4.5c-2.5,12.5,2.5,17.9,15.5,16.7 C6,459.6,7.5,458.1,7.5,448.5z M775.5,446.2c0-11.9-6.3-15.5-10-5.7c-2.7,7.1,0.9,17.1,6.1,17.1 C773.8,457.6,775.5,452.5,775.5,446.2z M-4.3,392.2c6.1-9.7-1.7-19.9-15.2-19.9c-8.6,0-11.2,1.9-12.2,8.8 c-0.7,4.8-0.3,11.4,0.9,14.5C-27.8,403.1-9.7,400.8-4.3,392.2z M-11.4,324.5c0-6.6-2.1-9.2-7.5-9.2c-8.9,0-12.7,12.8-5.2,17.5 C-16.3,337.8-11.4,334.6-11.4,324.5z M9,281.7c5.3-6.4,1.6-17.5-5.8-17.5c-6.5,0-10.6,9.2-7.6,17.1C-1.7,288.3,3.4,288.5,9,281.7 L9,281.7z M41.3,242.9c7.4-2.8,8-16.7,0.8-16.7c-7,0-15,10.1-11.9,15C33,245.9,33.4,245.9,41.3,242.9z"/>
			</g>
		</g>
		<g id="MOUNTAINS_1" transform="matrix(0.823989, 0, 0, 0.823989, 385.297516, 45.908394)" style="">
			<polygon class="st7" points="267,321 -15.8,918.7 549.7,918.7 &#9;&#9;"/>
			<polygon class="st8" points="267,321 353.3,503.5 313.2,457.2 267,466 237.6,483.1 180.6,503.5 &#9;&#9;"/>
			<polygon class="st9" points="267,321 75.3,918.7 -15.8,918.7 &#9;&#9;"/>
		</g>
		<g id="MOUNTAINS_2" transform="matrix(1, 0, 0, 1, 440.026428, -214.509247)">
			<polygon class="st7" points="410.4,419.9 127.7,1017.7 693.2,1017.7 &#9;&#9;"/>
			<polygon class="st8" points="410.3999938964844 419.8999938964844 496.79998779296875 602.4000244140625 435.79998779296875 548.2000122070312 419.0530090332031 544.2249755859375 385.23199462890625 573.35302734375 345.3110046386719 556.7150268554688"/>
			<polygon class="st9" points="410.4,419.9 288.4,1017.7 127.7,1017.7 &#9;&#9;"/>
		</g>
		<g id="MOUNTAINS_3" transform="matrix(0.722557, 0, 0, 0.722557, -213.719803, 67.536606)" style="">
			<polygon class="st7" points="410.4,419.9 127.7,1017.7 693.2,1017.7 &#9;&#9;" style=""/>
			<polygon class="st8" points="410.3999938964844 419.8999938964844 496.79998779296875 602.4000244140625 460.2070007324219 574.6409912109375 399.12701416015625 622.072998046875 383.35400390625 523.6900024414062 324.1000061035156 602.4000244140625"/>
			<polygon class="st9" points="410.4,419.9 288.4,1017.7 127.7,1017.7 &#9;&#9;"/>
		</g>
		<g id="MOUNTAINS_4" transform="matrix(1, 0, 0, 1.259289, -20.042509, -478.790375)" style="">
			<polygon class="st7" points="410.4,419.9 127.7,1017.7 693.2,1017.7 &#9;&#9;"/>
			<polygon class="st8" points="410.4,419.9 496.8,602.4 435.8,548.2 421.5,599.7 368.1,560.3 324.1,602.4 &#9;&#9;"/>
			<polygon class="st9" points="410.4,419.9 288.4,1017.7 127.7,1017.7 &#9;&#9;"/>
		</g>
	</g>
</svg>
