<svg xmlns="http://www.w3.org/2000/svg" viewBox="172.437 6.807 716.983 835.642" width="100">
	<path id="outline" fill="#111" d="M843 525c-4-5-5-18-3-26v-4c24-28 47-58 48-111-7-53-44-76-98-82h-1c7-14 10-33 6-52-11-60-53-95-129-87l-34 6c1-7 0-16-1-21-12-67-42-122-106-135l-4-1c-58-7-98 15-134 33-30-26-74 12-111-2-8 4-11 13-13 22-11 6-25 10-30 22 1 11 1 24 6 32 7-3 14-1 17 3 5 18 10 34 23 42 0-7-1-16 1-21 3 2 7 1 10 1 4 13 7 27 16 36 7-18-1-42 25-40l2-3c9 7 13 40-1 45-2-8-13-9-10-19-1-1-1-2-3-2-9 5-5 23-9 33-10-1-7 10-6 17 5 1 3 10 8 11 18-11 55-13 75-2 18-11 34-25 47-41 1-10 7-19 5-30 6-3 8-11 13-16l4-8c3-8-4-16-1-23 3-8 15-10 28-10 10 8 18 18 19 34l1 1v7c2 29-8 54-11 80-4 16-15 19-30 24-12 3-22 9-33 9-3-3-6-4-10-5l-1-1c-16-8-39-11-63-9-73 13-126 50-134 128l2 23c5 30 15 56 30 77 10 9 18 21 30 29 3 43 19 71 41 95 18 34 66 43 119 38-13 20-34 30-64 32-36-6-53-30-91-36-60-8-88 40-113 71l6 1c13-8 28-15 48-16 72-1 85 67 151 75 57 7 99-15 128-42l7 7 1 3c41 42 95 66 156 89 34 12 64 29 102 32l2 2h4c15-17 32-33 33-64-8-15 5-27 13-35 10-23 6-61 14-86-20-12 3-33 6-46-26-21-4-60 5-82-2-2-4-3-8-2z" />
	<g id="rings" fill="#ff1493">
		<path d="M312 65c21-2 45-10 56-21l-16-1c-6 10-18 17-34 14-6-8-20-1-30-4 5 8 10 14 24 12zM384 373c-2 16-11 25-23 31-31 1-31-29-55-35-6-16 9-29 25-30l3-12-1-1c-3 1-5-2-7 0-26 6-40 24-40 55l5 4c26-3 35 18 49 29 17 13 41-3 52-14 3-8 10-21 4-31-5 0-8 3-12 4zM536 241l-10 11c9 5 12 23 7 35-11 14-20 28-44 28-14 10-22 29-47 25-7-6-14 6-19 10 4 11 12 17 27 17 18-5 26-19 39-29 22-10 47-17 60-37v-3c6-7 7-19 9-31-6-10-8-26-22-26zM278 317c4-2 6-6 11-7 3-6 8-10 12-15 26-10 81-17 66-54-8-3-19 1-28 1 16 18-9 38-27 34-25-1-30 29-58 17-4 7-10 13-12 22 12-7 22 4 36 2zM551 155c0 9 2 17 1 25 8 6 18 11 23 20 5 0 7-5 12-6-1-24-20-30-36-39zM471 65l3-1c1 2 4 2 6 2 18-7 29-22 31-46-6 0-14-3-18 1-5 9-4 24-15 26-11 1-14-6-23-6-7 5-28 10-32-1v-4c-9 1-15 11-11 21 17 7 46-3 59 8zM749 482c1 2-1 1-1 3 17 19-15 41-36 38-10 12-32 32-49 14h-4c0 2-2 2-3 4 0 11 6 19 11 26l7-1c11 3 24 0 31-3l8-10c4-13 18-15 30-20 15-9 26-25 22-49-2-5-12-6-16-2zM843 437c-4 6-9 11-11 20-7 18-32 17-36 37 1 8 5 14 10 19 7-4 12-10 18-15 0-12 3-21 9-27 14-3 16-19 29-24 7-3 7-12 9-19-12-4-22 3-28 9zM761 196c-2 0-4-2-7-1-15 8-37 1-45-9h-3c-7-17-37-17-56-11 6 13 32 7 44 14 11 19 31 28 60 29 5-4 14-4 13-14-3-2-4-5-6-8zM558 101c16 8 37 10 44 27 1 4 0 11 3 14 0 7 8 15 16 14v-10c-4-12-15-16-13-34-6-19-37-13-45-31-12-12-8-34 10-35-5-5-9-10-17-8-29 5-18 55 2 63zM865 351c-6 6-4 22-10 28-5 3-9 8-18 7-9 4-7 19-14 25 13 2 22-5 30-10 1-7 6-11 9-16 20-2 15-27 3-34zM503 620c-4 0-12 14-13 16 0 5 6 7 8 11 9 16-9 40-28 34-7-1-12 4-21 2-1-2-3-2-5-3l-20 10c7 6 13 16 28 12 8-3 17-6 28-4 5 5 19 3 24-1l2-35c3-16 13-30 4-39-3 0-4-2-7-3zM368 707c-13-2-21-5-28-12-1-2-3-1-3-4-10-7-27-2-34 5 10 5 14 15 28 13 19-3 20 12 36 20 4 2 7 3 10 6l-1 4c3 2 8 1 11 2 13-18-1-30-19-34zM241 638c-1 3 1 4 1 6-5 4-5 13-6 20 19 6 29-4 30-22-7-3-15-4-25-4zM661 238c8-1 14-3 19-6-15-5-17-21-36-18-8 1-14 4-22 9-5 3-15 6-19 11-6 9-6 21-8 33 3 1 0 9 2 11 7-1 10-6 15-8v-20c12-9 22-19 39-22 4 3 7 5 10 10zM440 424c23 5 30-16 42-26-15 6-23 17-44 15-25-2-35 21-39 40 8-1 17-5 22-10 2-11 9-17 19-19zM279 420c-21 7-21-18-41-17 10 25 31 38 59 45-1-14-5-25-18-28z" />
	</g>
	<g id="skull_and_teeth">
		<path fill="#FFF" d="M363 87c0 2 2 4 1 5 4-1 9-3 12-7-8 1-10-10-18-6v3l-4 2v4c2 2 6 0 9-1zM368 190l-5-16h-2c-1 5-3 9-3 15 3 1 8 5 10 1zM342 100c-3-4-6-13-11-9-1 5 2 6 3 9h8zM265 127c3 7 3 16 8 21 0-10 0-19-8-21zM328 100l-4-5-22 2c5 4 18 7 26 3zM307 146c-2-2-5-2-9-2l5 18c2-4 4-10 4-16zM320 195l7-4c-1-6-4-10-8-13-1 5-2 14 1 17zM346 362c22 16 51-1 66-13 41-37 82-75 118-117h-3c-69 9-123 32-163 70-13 12-33 38-18 60zM807 750h3c1-7 6-8 6-15-7 0-8 8-9 15zM810 722c3-11 4-30 2-42-18 3-16 25-24 39 7 1 14 4 22 3zM795 747c5-3 8-8 8-16-15-9-15 10-8 16zM815 725h5c4-10 4-25 6-36-12 5-8 24-11 36zM632 697c-2 12 1 24 13 24 7-2 12-9 11-17-12 1-15-6-24-7zM664 709c2 8 1 20 12 20 6-5 10-10 12-18-5-4-16-1-24-2z" />
		<path fill="#FFF" d="M831 604c-1 5-4 8-6 11-7 0-7-6-10-10-1 2-4 3-6 3-8 5-7 18-20 17-5-2-6-6-5-12 3-18 10-37 13-56 2-9 3-18 9-23 10 0 8 11 18 11 4-4 2-13 11-12 3 2-1 6 1 8 10-10-10-19-8-35-4 4-8 9-13 11-21 20-44 37-71 50-8 9-8 27-24 28-15 5-44 8-50-8-16-20-33-39-34-75 9-9 11-26 13-40 3-21 23-33 43-36 15-3 25 16 44 11 30-28 59-64 55-122-15-28-45-48-91-40-67 20-101 72-144 116-9 12-21 24-32 34-6 6-12 15-19 19-29 23-61 40-103 48-35 7-82 6-109-8 2 24 10 42 18 60l15 22c16 25 41 33 79 37 29 3 51-8 74-14 23-11 18-51 38-66 10-13 16-30 36-32 0-1 0-2 1-1 15-1 16 27 4 31-6-1-8-11-2-14l2 1c2-2 1-8 0-10-8-4-15 0-20 4-5 7-10 15-16 21-12 29 17 46 12 73-4 28-26 50-20 89 11 27 37 38 58 55 7 2 10 7 17 9 49 28 115 52 177 70l7 1c18-3 25-33 33-48-7-3-7-14-3-20-3-2-4-5-4-8-11 9-12-9-17-13-8 16-26 5-29-9-3 5-7 10-12 14-10 0-11-9-16-14-7 3-10 11-19 12-8-5-12-15-16-23-6 6-13 21-26 12l-8-14c-12 18-40 5-33-21-11-7-13-21-27-24-1 15 19 20 15 31-9-3-13-11-19-17-3-4-7-8-9-14-6-50 30-65 27-111-5-4-10-9-19-7-4 3 2 17-8 14-9-12 8-23 22-23 28 14 12 58 4 81 4 12 18 14 23 24 14-11 25 4 30 14 4-5 7-12 13-14 11-2 15 13 21 19 5-6 8-14 17-16 7 5 11 12 14 21 4-7 8-15 16-17 10 4 11 17 16 25 6-7 11-16 22-18 5 6 9 13 12 21 4-8 9-14 21-15 1 3 4 4 6 6l3-1c0-7 8-10 5-19-12-3-7-28-1-35 1-7 8-8 9-14-1-3-3-4-5-5zM619 436c-1 12 2 31 0 46-3 16-23 26-24 4 3 2 4 5 9 5l5-5c1-13 2-32-4-41 2-14 12-21 19-30h8c14-2 20-8 27-16 8-10 7-24 17-31l7 1v4l-6 1c-5 14-10 29-21 38-14 6-30 11-37 24z" />
		<path fill="#FFF" d="M642 656c-10 10-14 39 7 39 15-7 6-36-7-39zM718 704c4-12 5-34-5-41-11 8-21 23-16 42 5-2 14-1 21-1zM674 662c-6 9-11 21-11 38 9-1 15 2 24 1 4-15 7-40-13-39zM711 736c7-2 10-8 14-13-4-8-17-15-27-8 1 10 5 17 13 21zM785 708c4-12 1-27-7-33-11 8-17 21-17 39 11 1 20 0 24-6zM772 743c4-5 13-9 10-20h-21c0 9 4 17 11 20zM732 724c1 7 5 10 9 14 4-2 7-7 8-12-6 2-11-1-17-2z" />
		<path fill="#ffde00" d="M744 667c-14 7-17 26-17 46 7 1 15 8 21 3 11-10 5-40-4-49z" />
	</g>
	<g id="snake_skin" fill="#6cff00">
		<path d="M249 108l-2-3h3c3 3 7 4 9 8 17 7 23 29 53 21l7-1c8-7 21-8 35-9 16-2 27-11 38-10 4 27 12 80-18 85-8 2-15-1-22-1-19-2-30 8-40 1-2 4 0 11 4 11 8-3 17-7 29-7 15-1 29 4 42 7 20-14 42-25 44-57v-4c0-9-3-14-5-20 7-5 7 7 14 6 11-5 2-29 8-39 14-17 55-17 73-4 14 12 23 29 28 49 8 14 28 16 36 29 1 3 2 5 4 6 1 5 4 7 6 12 9-5 16-10 26-14v-8h-3c-13-5-20-16-23-32-2-21-30-17-43-28-10-9-15-21-21-34-3-21 5-35 16-43-5-3-25-15-30-6v8c-1 7-7 15-11 21-6 10-16 22-31 20-12-2-27-12-40-4h-13c-11-3-25-7-22-22-6 6-16 10-23 2-5 7-12 12-23 13-4 10-18 8-31 8-6 2-10 6-18 5-12-4-18-15-27-22l-3 3c0 22-21 21-33 30l2 25 5-2zm29-36v4c3 11 13 14 26 14 26-4 43-17 67-23l2 8c5 6 19 4 29 6-20 10-41 19-66 24-30 3-58-3-61-30 2-1 1-3 3-3zm8 36c-2 0-3 2-4 3-4 2-2-4-4-4l-6 4c-14-7 16-19 14-3zm-30-17v9l-5-1-5-5c-1-6 8-6 10-3zM877 384c-4 7-17 5-17 17-10 10-20 19-41 18-16 20-33 39-54 54 2 5 5 9 5 16 3 12-2 23-5 31-2 0-2 3-4 3-6 14-22 18-35 24-12 9-14 27-34 27l-1 1h-5l-13 1c2 3 5 4 8 6 1 1 0-1 2-1l1 2c29-3 45-20 67-29l50-35v-3c-8-7-15-21-8-34 15-14 36-23 42-45 8-11 21-23 40-16 4-10 6-25 2-37zM504 606c-1 2 1 7-1 9 8 0 12 4 16 7 5-10-5-18-15-16zM445 710c-14-3-20-12-32-17-65 11-89-39-140-49 0 13-9 16-12 25 13 5 25 11 33 20h7c7-2 12-7 19-8 22-4 27 18 45 21l7 1c21 4 36 17 24 39 42 0 75-14 99-35-18-3-36-5-50 3z" />
		<path d="M741 228c20 4 33 9 44 20-1-14-6-24-12-33-26 26-71 1-87-20-22 1-37-6-47-18-37 13-67 33-93 56 3 4 5 9 9 13 20 23 5 64-17 73-9 9-22 14-36 19-18 8-28 35-50 38-18 2-30-9-35-21-6 2-10 7-15 10 13 24-9 43-22 53-9 5-19 11-32 8-5-1-10-5-14-8-8-4-11-11-18-17-9-9-26-1-33-12a52 52 0 0148-71c1 2 3 2 6 2 23-29 53-51 87-68-13-7-28-12-47-13 7 15-3 30-11 38h-2c-4 6-13 9-19 13-28 4-47 16-60 34-15 8-34-11-48 1-7 17-9 50-2 69 16-1 22 9 30 16 10 1 21 0 27 4 14 14 8 47 39 43a142 142 0 0060-3c3-27 18-41 40-49 26 9 38-13 59-16 34-35 61-75 101-104-7-22-2-50 13-60 17-2 28-23 48-20 12 1 19 9 25 17 17 9 41 3 64 6z" />
	</g>
	<path id="mouth" fill="red" d="M345 189h6c0-14 7-22 12-30l3 1c0 14 7 21 11 29 14-9 10-46 5-62-11 4-23 7-38 8 8 14 6 38 1 54z" />
	<g id="inner_spots" fill="#00b8ff">
		<path d="M552 218c13-4 21-24 0-26 1 10-2 17 0 26zM326 50c5 0 7-2 11-3-4-1-9 1-11 3zM313 364c22 5 21 32 46 33 7-5 14-10 15-21-24 1-40-7-43-28-8-1-19 6-18 16zM315 270c8-1 16-4 20-10v-5l-2-4c-18-9-32 8-45 13-10 8-20 14-27 24 27 6 25-24 54-18zM511 299c9-4 19-13 17-29-1-4-4-10-8-11-5 0-9 7-12 9-21 19-44 43-62 62 1 2 6 0 7 2 22-4 24-29 51-28 1-2 4-2 6-2l1-3zM744 490c-1 0-4-1-4 1-24 14-52 25-73 43 5 1 8 3 15 3 21-5 21-28 49-22 8-5 16-10 16-22l-3-3zM849 468c-5 9-19 8-17 23 7-6 13-13 17-22v-1zM860 342c-6-7-13-12-23-16 7 14 5 41 0 55 16-1 16-16 19-29 3-2 5-5 4-10zM607 97c-4-13-11-24-18-36-7-3-16-8-23-2l-2 5c0 27 29 21 43 33zM473 40c9-1 5-16 11-20-17 2-38 5-51 13v6c15-3 30-9 40 1zM736 191c4 0 13-1 11-6-12-7-26-13-44-14 8 8 18 18 33 20zM201 671c11-6 32 0 28-20 3-2 5-5 6-9-17 1-26 16-34 29zM344 716c-3-3-12-4-16-1 11 9 21 21 41 22-10-4-18-13-25-21zM621 261v1c10-9 23-13 32-22l-1-2c-15-2-26 9-32 20l1 3zM430 439c4-2 9-4 12-7-7-1-11 3-12 7zM485 645c-7 15-22 20-33 31 4 2 8 1 10-1 10-1 22 2 26-6 5-7 6-16 0-23-1 0-1-2-3-1z" />
	</g>
	<g id="belly" fill="#ffed87">
		<path d="M502 205l-8 22c12-2 27-3 39-6-14-2-23-9-31-16zM511 162c-2 11-3 22-6 31 5 12 17 20 32 19 2-12 5-24 4-39-15 1-23-5-30-11zM541 163c0-14-4-24-7-36-7-1-17 0-22-4-5 25 5 47 29 40zM530 116c-7-11-17-18-31-22 6 10 14 29 31 22zM736 482v-8c-3-3-4-8-9-9-16 10-34 17-50 27 3 6 8 8 8 17 16-10 36-17 51-27zM647 527c15 4 19-9 29-13 1-30-38-10-29 13zM768 425c-10 12-22 23-33 34 5 3 7 10 10 16 10-8 37-16 39-34 1-9-8-18-16-16zM803 338l-1 1c-2 9-2 20-5 29 12 3 21 9 29 16-1-12 5-19 5-30-1-11-13-18-28-16zM829 333c-3-13-17-16-30-20l3 15c10 1 19 2 27 5zM762 285c7 3 11 9 21 9 8-13 3-39-9-44 1 17-5 26-12 35zM731 237c2 13 4 29-3 38 11-1 16 5 28 4 9-6 13-31 2-38-8-3-16-5-27-4zM794 377c-5 14-12 28-20 40 5 1 8 4 11 6 3 5 7 7 8 13 10-13 24-23 25-46-5-7-12-12-24-13zM417 654c-10 2-17 7-29 8-5 3-9 16-4 22 15 3 30 0 40-5-5-5-10-15-7-25zM253 630c9 2 19 3 26 6l5-9c-10-3-23 0-31 3zM290 641c11 2 18 10 28 13 1-6 5-8 9-11-8-6-36-24-37-2zM443 482c12-4 24-8 32-16-13-4-23-13-29-25-12 5-21 12-32 18 5 12 14 21 29 23zM535 373c-4-2-6-5-8-8h-3l-31 36c5 12 15 20 31 21 11-5 15-18 24-25 10-12-7-17-13-24zM486 407c-10 11-21 21-33 29 2 12 14 20 25 22 20 3 26-18 37-25-11-7-21-15-29-26zM604 285c-11 10-24 19-34 30 12 7 18 19 25 31 10-13 29-17 32-37-5-11-8-24-23-24zM427 488c-7-9-20-12-22-26-11 2-21 5-34 4 1 13 7 27 18 29 15 2 25-7 38-7zM585 343c-9-6-15-27-28-16-8 8-20 19-26 31l11 11h2c1 2 2 3 5 4 16 16 27-12 38-19l1-3c-1-2-3-4-3-8zM329 466c0 14 2 25 11 30h35c-5-9-10-17-12-29-12 2-22-2-34-1zM277 471l1-1c-3-6-2-14-4-21-11-5-21-12-29-20 6 18 18 31 32 42zM484 630c4-8 9-14 11-24-14 2-25 7-37 11 0 13 13 17 26 13zM475 641c-12-1-17-8-25-13-3 5-8 8-12 13-7 4-14 8-12 20 3 4 4 14 11 12 16-3 28-23 38-32zM283 454c1 27 20 36 44 39-2-9-8-17-5-28l-39-11zM656 252c-14 5-30 19-41 27 11 6 16 18 20 31 14-8 26-18 39-27 3-16-7-34-18-31zM359 658c-13-4-23-16-32-3l-1 6c13 8 28 16 45 20-1-8 2-13 5-17-5-3-11-5-17-6zM723 244l-5-7c-18-1-32 3-45 7 5 11 9 22 11 37 21-4 48-5 39-37z" />
	</g>
</svg>
