<svg viewBox="-155.188 84.302 116.716 129.955">
	<path fill="#cccccc" d="M-130.89 213.54c-3.98-.37-8-1.5-10.45-2.92-3.21-1.86-7.22-6.6-9.49-11.24-2.52-5.13-3.4-8.4-3.74-13.76-.58-9.3 2.53-15.65 9.3-18.98 2.57-1.26 3.52-1.5 6.23-1.48 3.94.01 6.52 1.1 9.27 3.9 5.48 5.57 5.96 13.98.95 16.57-.78.4-1.53.63-1.65.51-.12-.12.2-.45.72-.73 1.31-.7 2.32-2.84 2.3-4.89-.02-5.28-6.27-10.86-11.14-9.94-3.43.64-6.66 4.31-7.3 8.3-.34 2.17.4 6.38 1.7 9.7 2.95 7.41 10.32 14.52 16.84 16.22 2.63.69 3.47.72 6.24.25 1.76-.3 5-1.3 7.2-2.2 6.11-2.54 8.23-3.07 12.18-3.1 3.01 0 4.09.2 6.27 1.21 1.45.68 3.26 1.67 4.01 2.2.75.54 1.5.84 1.67.68 1.09-1.1-4.55-4.47-8.82-5.27-4.04-.76-7.58-.05-15.4 3.1-5.89 2.38-6.66 2.58-10.02 2.59-2.99 0-4.09-.2-6.14-1.18a22.32 22.32 0 01-3.58-2.07l-1.08-.89 3 .2c4.53.28 5.7-.11 11.13-3.75 7.29-4.88 12.94-6.81 19.87-6.77 4.07.03 8.05 1.05 10.45 2.7 1.08.75 1.6.79 1.6.13 0-2.04 4.5-10.61 7.56-14.37.84-1.04 1.54-2.1 1.54-2.37 0-.58-1.5-1-10.24-2.8-13.17-2.72-18.36-5.44-21.8-11.43-.78-1.36-.6-1.27 1.71.9 4.42 4.13 9.08 5.58 20.78 6.43 3.62.27 8.39.82 10.58 1.24l3.98.76 1.36-1.3c.75-.72 1.36-1.52 1.35-1.79 0-.26-1.04-1.6-2.3-2.98-3.05-3.33-6.56-8.26-8.22-11.53-1.7-3.35-3.12-8.79-3.12-12 0-3.38 1.23-8.5 2.8-11.6a25.7 25.7 0 001.3-2.84c0-.66-3.74-.09-7.44 1.15a46.79 46.79 0 00-22.46 16.66c-1.78 2.46-1.7 1.79.33-3.14 3.6-8.67 11.7-17.45 20.66-22.39 3.5-1.92 10.08-3.95 13.75-4.22 2.23-.17 3.54-.5 3.97-.99 1.38-1.55 3.9-6.78 4.62-9.6 1.73-6.77-1.2-13.32-6.94-15.46-4.09-1.53-10.26-.96-13.87 1.29a20.07 20.07 0 00-5.55 5.76c-.65 1.18-.71 1.21-.45.23 1.07-4.03 4.82-7.85 9.62-9.8 5.86-2.37 12.86-1.48 17.2 2.2a17.1 17.1 0 014.81 7.44c1.57 4.74.9 12.44-1.5 17.13-.5.98-.74 1.93-.53 2.1.21.17 1.6.68 3.1 1.13a32 32 0 0113.4 7.99c4 4 5.96 7.1 7.92 12.62 1.36 3.83 1.42 4.28 1.42 11.27 0 5.61-.19 7.95-.82 10.23-.78 2.84-4.42 10.71-6.94 15.01l-1.2 2.05 2.28 3.75c4.11 6.76 6.92 17.36 6.92 26.08 0 4.11-.12 4.97-.68 4.97h-10.5c-1.09 0-1.1-.05-1.1-4.44 0-2.44-.22-5.77-.47-7.4-.58-3.61-2.89-11.26-3.78-12.48-.57-.78-.76-.81-1.42-.26-.87.72-.85.88.82 6.5 1.36 4.58 2.37 13 1.92 16.02l-.31 2.06h-7.94l.02-5.35c.01-5.62-.46-9.67-1.11-9.67-.22 0-.74 1.06-1.17 2.34-.98 2.96-.72 7.52.6 10.52l.96 2.16h-31.02l-2.21-2.27c-2.56-2.63-3.51-2.96-7.44-2.6-3 .29-5.94 1.5-11.81 4.87-5.08 2.9-8.95 3.71-15.06 3.13zm6.13-10.82c.94-.6.18-1.41-1.3-1.41-1.38 0-2.08.6-1.6 1.36.34.56 2.05.59 2.9.05zm7.71-2.14c1.35-.94 1.17-2.63-.3-2.84-2.28-.32-4.83 1.68-3.94 3.1.43.72 3.09.55 4.24-.26zm27.37-3.77c0-1.53-.18-1.84-1.37-2.33-2.9-1.2-4.88-.5-4.37 1.55.35 1.39 2.23 2.5 4.26 2.53 1.42.02 1.48-.06 1.48-1.75zm45 .88c2.1-1.13 1.74-4.66-.6-5.78-1.31-.62-1.7-.63-2.82-.1-2.46 1.18-2.64 4.8-.3 6.03 1.31.69 2.21.65 3.72-.15zm-63.91-.98c2.4-1.89.63-3.78-2.74-2.94-1.54.39-2.74 2.32-2 3.22.82.98 3.32.83 4.74-.28zm10.28-1.78c1.2-1.2.58-2.45-1.6-3.17-3.75-1.24-7.26 2.2-3.71 3.64 1.81.73 4.33.5 5.3-.47zm48.63-10.29c1.12-1.42 1.2-2.78.23-4.15-1.06-1.52-2.18-1.24-4.01 1-1.89 2.3-1.91 2.4-.9 3.52 1.15 1.27 3.53 1.09 4.67-.37zm-18.98-19.59c1.94-1.9 2.03-2.22.97-3.4-1.64-1.8-5.16-.36-5.16 2.13 0 1.05 1.38 2.96 2.14 2.96.18 0 1.1-.76 2.05-1.69zm6.47-7.63c3.1-4.5 4.09-7.56 4.1-12.75.02-4.25-.08-4.76-1.47-7.6-1.81-3.68-4.45-6.12-9.07-8.4-4-1.98-3.94-2.01-6.13 3.27-1.34 3.25-1.5 4.1-1.5 7.96.01 4.66.61 6.36 4.01 11.37 1.44 2.12 7.5 8.64 8.04 8.64.17 0 1.08-1.12 2.02-2.49zm-12.4.38c.46-.42.83-1.24.83-1.82 0-1.3-1.5-2.89-2.73-2.89-.5 0-1.32.41-1.82.91s-.9 1.32-.9 1.82c0 1.2 1.56 2.73 2.8 2.73.54 0 1.36-.34 1.82-.75zm-4.14-8.36c1.01-.54 1.18-2.62.3-3.7-.94-1.18-2.03-1.29-3.26-.32-2.7 2.12-.1 5.65 2.96 4.02zm-1.22-9.65c.68-1.1-.15-2.35-1.67-2.53-1.51-.18-2.42 1.27-1.68 2.67.61 1.14 2.6 1.05 3.35-.14zm.76-5.61c.81-.98 0-2.24-1.44-2.24-.8 0-1.13.29-1.24 1.09-.25 1.72 1.57 2.5 2.68 1.15zm1.1-5.65c0-.71-.28-1.18-.79-1.28-.9-.17-1.48.92-1.07 2 .43 1.13 1.87.58 1.87-.72zm9.94-15.66c.3-.77-.82-1.83-1.5-1.4-.26.15-.47.68-.47 1.17 0 1.04 1.59 1.23 1.97.23zm1.56-4.01a.9.9 0 00-.8-.57.9.9 0 00-.8.57c-.11.34.21.57.8.57.58 0 .9-.23.8-.57zm1.25-3.08c.15-.25-.05-.58-.45-.73-.87-.34-1.36.03-.94.7.38.62 1.02.63 1.39.03zm-.16-3.4c0-.24-.22-.5-.5-.6-.26-.09-.48.18-.48.6 0 .41.22.68.49.6.27-.1.49-.37.49-.6zm-.07-3.23c0-.4-.25-.64-.54-.54-.85.28-.98 1.26-.18 1.26.4 0 .72-.32.72-.72zm-.91-2.66c0-.11-.2-.33-.46-.48-.25-.16-.45-.07-.45.2 0 .26.2.48.45.48s.46-.09.46-.2z" />
</svg>
