<svg viewBox="11.221 90.911 115.934 118.888">
	<path d="M19.16 208.2c.9-7.53 5.72-13.72 13.06-16.75a26.4 26.4 0 003.37-1.58c.63-.54-2.36-6.8-7.79-16.25-10.5-18.3-14.9-29.55-16.08-41.15-.85-8.21.93-17.12 4.64-23.34 3.09-5.15 10.43-12.02 15.64-14.6 12.65-6.28 27.06-3.89 36.95 6.12 5.2 5.28 8.14 12.24 8.97 21.28.91 9.97-3.12 17.84-11.15 21.76-7.66 3.74-15.73 3.04-18.66-1.62-1.62-2.6-.54-7.23 2.58-11.04l1.12-1.36-1.23 2.7a18.9 18.9 0 00-1.43 4.83c-.18 1.86-.04 2.3 1.18 3.66 1.34 1.5 1.48 1.54 4.71 1.51 2.77-.02 3.85-.27 6.35-1.47 3.53-1.7 6.3-4.3 7.74-7.27 2.83-5.85-.1-17.5-5.87-23.25-8.35-8.36-19.93-8.17-28.08.47-3.19 3.39-4.28 5.2-5.4 9-1.96 6.58.23 16.17 6.28 27.52 2.72 5.12 3.98 7.18 9.43 15.5 2.63 4 5.53 8.66 6.46 10.35.93 1.69 1.87 3.07 2.08 3.07.22 0 .95-.95 1.63-2.11 1.66-2.83 7.52-8.9 10.97-11.37 6.7-4.78 10.95-5.53 29.73-5.23 6.3.1 8.06-.03 10.98-.8 3.84-1 7.29-2.59 9.3-4.3 1.53-1.29 3.2-3.94 2.49-3.94-.27 0-.48.27-.48.6 0 .32-.77 1.33-1.71 2.25-4.2 4.09-13.34 6.3-22.73 5.47-5.22-.45-12.9-.4-15.46.1-.83.15-.64 0 .54-.46 3.42-1.33 10.79-2.6 11.95-2.07 1.66.75 3.66.6 4.16-.34.35-.65 1.49-.93 5.79-1.4 2.95-.32 6.43-.99 7.74-1.48 3.4-1.27 6.66-4.38 8.46-8.05 1.4-2.86 1.48-3.3 1.48-8.04 0-4.72-.08-5.19-1.45-7.97-2.63-5.34-7.52-9.1-12.66-9.76-3.07-.39-8.3.75-11.27 2.45-4.81 2.75-8.5 7.84-8.5 11.72 0 3.46 2.76 7.78 5.78 9.04 2.31.96 6.39.85 8.56-.23 1.77-.88 1.78-.88.74-.01-2.39 2-8.06 2.44-11.3.87-2.36-1.15-4.02-3.03-5.5-6.27-2.21-4.8-.5-10.7 4.55-15.68 6.1-6.03 14.27-8.42 21.97-6.42 9.38 2.42 17.03 13.04 17.03 23.63 0 6.35-2.95 13.66-7.26 17.96-2.73 2.73-8.57 6.06-11.62 6.64-2.11.4-1.99.95.36 1.58 3.26.88 7.7 3.64 10.85 6.78a26.41 26.41 0 017 12.41 35.2 35.2 0 01-.19 14.48c-.74 2.87-3.02 8.6-3.41 8.6-.07 0-.03-2.5.08-5.57.23-6.44-.43-10.1-2.63-14.45-2.54-5.04-6.13-8.26-9.37-8.39a4.82 4.82 0 01-3.02-1.01c-1.37-1.26-3.44-1.58-4.73-.73-.58.38-1.77.61-2.75.54-2.57-.2-4.5.4-5.03 1.6-.53 1.15-3.08 2.54-4.72 2.56-1.48.02-2.66 1.02-2.66 2.25 0 1.21-2.86 4.1-4.06 4.1-1.36 0-2.5 1.68-2.4 3.55.11 1.97-1.32 4.62-2.69 4.97-1.03.27-2.95 3.69-2.38 4.23 1.25 1.19 9.59 5.1 12.64 5.93 6.1 1.67 11.15.39 13.03-3.3 2.09-4.09.21-8.76-4.37-10.88-2-.92-1.3-1.1 1-.26 3.13 1.17 6.03 5.12 6.04 8.27.02 3.84-2.1 7.11-5.79 8.92-1.85.9-2.84 1.06-6.93 1.05-5.17-.01-7.24-.55-14.05-3.66a74.46 74.46 0 00-3.49-1.53c-.07 0-.65 1.38-1.3 3.07-1.69 4.37-1.58 4.27-4.5 4.12l-2.57-.14 2.3-5 3.02-6.6c6.7-14.98 12.05-21.94 19.9-25.94 4.98-2.53 8.51-3.11 13.28-2.17a22.3 22.3 0 0111.8 5.93c3.23 2.91 2.82 2-.57-1.28-3.62-3.5-10.07-6.08-15.2-6.1-7.54-.03-15.71 4.97-21.94 13.41-2.45 3.33-8.42 14.85-12.65 24.43l-1.55 3.51-15.17.02-15.17.02.99-1.48c1.86-2.8 2.8-5.38 3.06-8.48.15-1.78.07-3.22-.18-3.38-.7-.43-4.89 1.74-6.95 3.6-2.2 2-3.46 4.24-4.14 7.45-.28 1.25-.68 2.28-.91 2.28-.63 0-.5-2.67.26-5.16 1.26-4.14 2.98-6.2 7.07-8.46 3.09-1.7 2.6-1.8-.75-.16a14.1 14.1 0 00-7.79 11.4l-.25 2.38h-5.45l.25-2.2zm3.7.56c.82-.31.96-2.02.23-2.76-.63-.63-2.1-.26-2.43.62-.3.75.46 2.42 1.08 2.42.22 0 .73-.12 1.12-.28zm1.4-6.54c0-1.3-1.43-1.85-1.87-.72-.41 1.08.17 2.17 1.07 2 .5-.1.8-.57.8-1.28zm2.96-3.93c0-.86-1.3-1.33-1.92-.7-.36.36-.34.68.06 1.17.65.78 1.86.48 1.86-.47zm19.7-3.59c.38-2.34-1.9-9.55-5.77-18.32-2.33-5.28-4.57-9.48-8.75-16.47-7.14-11.92-10.2-22.65-9.59-33.65.59-10.57 4.87-17.88 12.67-21.62 3.68-1.76 3.56-2.08-.25-.65-3.94 1.47-8.51 6-10.72 10.6a36.46 36.46 0 00-2.35 6.44c-.76 3.54-.75 12.71.01 17.05 1.21 6.85 5.1 16.71 9.04 22.94a150.5 150.5 0 018.32 16.08c2.25 5.16 5.43 14.02 5.43 15.18 0 1.15.95 4.02 1.32 4.02.21 0 .5-.72.64-1.6zm-15.94.88c.43-.44-.16-1.55-.83-1.55-.76 0-1.26.76-.88 1.36.3.5 1.28.61 1.7.19zm4.12-2.2c.37-.96-.8-1.8-1.44-1.03-.37.45-.36.75.03 1.15.7.7 1.11.67 1.41-.12zm16.18-11.17c.56-1.24.9-2.47.73-2.73-.15-.25-.98-.46-1.83-.46-1.7 0-2.5.92-2.5 2.9 0 .99 1.42 2.56 2.3 2.56.15 0 .74-1.02 1.3-2.27zm-3.86-9.96c1.27-2.48-1.28-5.02-3.55-3.54-1.4.91-1.85 2.25-1.18 3.5 1.08 2 3.72 2.03 4.73.04zm-6.56-9.6c1.1-1.1 1.16-2.18.2-3.54-1.41-2.03-4.74-.9-4.74 1.6 0 2.55 2.75 3.73 4.54 1.94zm62.55-7.97c0-.72-.35-.93-1.77-1.05-1.96-.16-2.82.38-2.4 1.5.22.56.77.71 2.23.6 1.59-.11 1.94-.3 1.94-1.04zm6.35-.84c1.5-1.1-.2-2.16-2.22-1.38-.4.15-.72.66-.72 1.14 0 1.03 1.67 1.17 2.94.24zm-73.78-1.26c.75-1.02.8-1.35.31-2.27-.73-1.4-1.29-1.75-2.8-1.76-1.6 0-2.8 1.69-2.38 3.36.6 2.35 3.34 2.72 4.87.67zm79.73-2.26c.47-.75-.5-1.45-1.53-1.12-1.12.35-1.68 1.65-.92 2.12.6.37 1.95-.18 2.45-1zm3.3-3.69c.85-.85.66-2.18-.32-2.18-.85 0-1.41.83-1.41 2.08 0 .8.98.85 1.73.1zm-87.68-2.1c1.38-1.12.95-3.12-.78-3.55-2.32-.58-3.76 1.74-2.16 3.5.99 1.1 1.63 1.1 2.94.05zm89.75-3.04c.35-.9-.15-2.12-.78-1.91-.81.26-.93 2.6-.14 2.6.36 0 .78-.31.92-.69zm-91.81-5.4c0-2.37-2.89-2.84-3.34-.55-.3 1.5.3 2.15 1.85 2 1.3-.12 1.49-.3 1.49-1.45zm92.1-.28c0-1.43-.75-1.86-1.2-.68-.32.84.1 2.04.73 2.04.26 0 .47-.61.47-1.36zm-93.52-6.48c.73-1.17-.2-2.4-1.82-2.4-1.03 0-1.35.24-1.46 1.06-.09.59-.04 1.37.1 1.74.36.9 2.53.63 3.18-.4zM27 121.2c0-.79-.25-1.1-.9-1.1-1.07 0-1.52 1.53-.62 2.1.94.6 1.52.22 1.52-1zm2.46-5.13c.63-.77.19-2.1-.7-2.1-.78 0-1.27 1.1-.91 2.04.32.85.93.87 1.6.06zm3.87-4.66c.88-.33.96-2 .1-2-.84 0-1.8 1.21-1.44 1.8.35.56.4.57 1.34.2z" />
</svg>
